<?xml version="1.0" encoding="UTF-8"?>
<svg version="1.1" xmlns="http://www.w3.org/2000/svg" width="3000" height="2000">
<path d="M0 0 C0.67616364 0.00026688 1.35232727 0.00053375 2.04898071 0.00080872 C22.53908136 0.01095398 42.89883365 0.22991584 63.3125 2.1875 C64.7400333 2.31812777 66.16760676 2.44831714 67.59521484 2.578125 C149.07792576 10.08228192 229.005925 30.76532963 303.3125 65.1875 C304.34262207 65.66268066 305.37274414 66.13786133 306.43408203 66.62744141 C364.70485654 93.64498677 420.73293613 128.77002203 468.203125 172.2578125 C470.15039502 174.03920396 472.12774471 175.7750977 474.125 177.5 C484.11004045 186.21953619 493.66372792 195.3726255 503.01708984 204.76171875 C504.70425958 206.45431347 506.39680196 208.14140597 508.08984375 209.828125 C513.71307342 215.44791529 519.15182972 221.13503748 524.3125 227.1875 C525.93217817 228.96320221 527.55661718 230.73458307 529.1875 232.5 C533.22652153 236.93381311 537.08756878 241.46804584 540.8515625 246.13671875 C542.64530236 248.36038674 544.45122383 250.56948478 546.2734375 252.76953125 C554.68491994 262.95872477 562.60450801 273.4578055 570.3125 284.1875 C570.90208496 285.00798828 571.49166992 285.82847656 572.09912109 286.67382812 C605.43653287 333.26060733 632.59160923 384.4014371 652.3125 438.1875 C652.56537781 438.87718872 652.81825562 439.56687744 653.07879639 440.27746582 C674.76256162 499.67089168 687.52956952 561.17776968 692.3125 624.1875 C692.45606934 625.97861206 692.45606934 625.97861206 692.60253906 627.8059082 C693.63899661 642.55685379 693.5583293 657.34472631 693.5625 672.125 C693.56294186 672.84318657 693.56338371 673.56137314 693.56383896 674.30132294 C693.57179916 699.03466829 692.90719324 723.57275504 690.3125 748.1875 C690.23 748.98303284 690.1475 749.77856567 690.0625 750.59820557 C684.54920936 803.3124208 673.14749074 854.95405988 656.3125 905.1875 C656.0916272 905.85033997 655.87075439 906.51317993 655.64318848 907.19610596 C645.18942591 938.53907403 632.12523055 968.66796518 617.3125 998.1875 C616.76207031 999.28562012 616.21164062 1000.38374023 615.64453125 1001.51513672 C608.12358424 1016.43421243 600.04607239 1030.94510045 591.3125 1045.1875 C590.8086377 1046.00943848 590.30477539 1046.83137695 589.78564453 1047.67822266 C572.59308833 1075.5790615 553.24767136 1101.98709849 532.3125 1127.1875 C531.68674072 1127.94281006 531.68674072 1127.94281006 531.04833984 1128.71337891 C525.04394936 1135.94578849 518.85087348 1142.95937069 512.4296875 1149.82421875 C509.97412537 1152.45061674 507.58599021 1155.13132958 505.19921875 1157.8203125 C500.24870101 1163.3314127 495.06644508 1168.58525338 489.8190918 1173.8112793 C488.24475845 1175.3802236 486.67588411 1176.95448558 485.10742188 1178.52929688 C480.22055489 1183.41938571 475.29339871 1188.21353894 470.03588867 1192.70922852 C467.45573046 1194.9224114 464.98738859 1197.2455758 462.5 1199.5625 C457.92952095 1203.78024087 453.2431113 1207.7970264 448.39453125 1211.6953125 C446.08085882 1213.56619084 443.79063421 1215.45481879 441.51171875 1217.3671875 C415.61447492 1239.04688895 387.46300084 1258.1522917 358.3125 1275.1875 C357.55549805 1275.63174316 356.79849609 1276.07598633 356.01855469 1276.53369141 C323.10832832 1295.78967492 288.99463535 1311.80802868 253.3125 1325.1875 C252.2493457 1325.59291016 251.18619141 1325.99832031 250.09082031 1326.41601562 C234.15215402 1332.46291106 218.87070136 1337.54845929 202 1331.3359375 C193.41554386 1327.33636134 188.39241843 1321.66684854 184.3125 1313.1875 C182.26876813 1307.37408282 182.0381868 1302.17896312 182.08544922 1296.04748535 C182.0851515 1295.04092785 182.08485378 1294.03437036 182.08454704 1292.99731112 C182.08593356 1289.63158507 182.10160754 1286.26607863 182.1171875 1282.90039062 C182.12102704 1280.4835065 182.12395408 1278.06662078 182.1260376 1275.6497345 C182.13235885 1270.44533243 182.14467201 1265.24098077 182.16217041 1260.03660583 C182.187362 1252.4869937 182.19945263 1244.93740247 182.20803714 1237.38775522 C182.22216836 1225.10467829 182.24375895 1212.82162768 182.27148438 1200.53857422 C182.27396781 1199.43656708 182.27396781 1199.43656708 182.27650142 1198.31229717 C182.28997059 1192.36109342 182.30380357 1186.40989053 182.31770706 1180.45868778 C182.32980111 1175.2799133 182.34176739 1170.10113856 182.35351562 1164.92236328 C182.35517188 1164.19344472 182.35682813 1163.46452616 182.35853457 1162.71351916 C182.38605038 1150.49437019 182.40549462 1138.27522078 182.41933632 1126.05604887 C182.42743853 1119.2103755 182.43980544 1112.36476009 182.46282959 1105.51911926 C182.48440911 1099.06436886 182.49664309 1092.60966595 182.5021286 1086.15488243 C182.50583048 1083.80374515 182.51294568 1081.45260998 182.52399445 1079.10149574 C182.61112324 1059.93415984 182.15827648 1040.5747937 178.1875 1021.75 C177.97504639 1020.7276123 177.76259277 1019.70522461 177.54370117 1018.65185547 C171.12487509 989.26169214 158.87617803 961.69993457 136.3125 941.1875 C138.73287113 938.76712887 139.69207589 938.80939745 143.02954102 938.42895508 C144.51483559 938.25243156 144.51483559 938.25243156 146.03013611 938.07234192 C147.65683983 937.89151314 147.65683983 937.89151314 149.31640625 937.70703125 C151.65058755 937.43127859 153.9847332 937.1552241 156.31884766 936.87890625 C158.16775604 936.66451904 158.16775604 936.66451904 160.05401611 936.44580078 C242.74277283 926.7983609 337.99747688 911.80864936 393.76953125 843.0078125 C397.06831992 838.81826995 400.22520117 834.53470473 403.3125 830.1875 C403.72306641 829.6109668 404.13363281 829.03443359 404.55664062 828.44042969 C434.22310536 786.11391485 445.72635318 733.86124857 450.3125 683.1875 C450.45606934 681.63131958 450.45606934 681.63131958 450.60253906 680.04370117 C451.53633011 668.30019096 451.53371162 656.54016169 451.55273438 644.76586914 C451.56241463 641.156827 451.59351766 637.54836185 451.625 633.93945312 C451.70808787 615.78727971 450.45261698 597.97222339 446 580.3125 C445.68252808 579.02520996 445.68252808 579.02520996 445.35864258 577.71191406 C443.28813222 569.61063747 440.5949379 561.8721308 437.3125 554.1875 C436.88976807 553.18372314 436.88976807 553.18372314 436.45849609 552.15966797 C426.97090321 529.95209964 412.61645725 510.43791616 396.921875 492.234375 C393.6208295 488.40359264 390.45489673 484.46730154 387.28515625 480.52734375 C385.39626927 478.28686196 383.41634814 476.2254558 381.3125 474.1875 C381.49425781 473.59759277 381.67601562 473.00768555 381.86328125 472.39990234 C387.07772271 455.27581031 391.2839478 437.99037189 393.3125 420.1875 C393.4067627 419.37168457 393.50102539 418.55586914 393.59814453 417.71533203 C397.92040911 376.01591726 390.56459312 334.66275178 377.3125 295.1875 C377.05670166 294.37796875 376.80090332 293.5684375 376.53735352 292.734375 C375.76619605 290.31733279 375.76619605 290.31733279 374.3125 287.1875 C350.59124556 277.53817616 316.334718 291.75038053 294.60620117 300.74291992 C258.7358031 315.91428442 218.82476236 334.52749277 188.53979492 359.47119141 C184.2564124 361.74913824 181.424188 360.93022338 176.98046875 359.6796875 C176.19109421 359.48075897 175.40171967 359.28183044 174.58842468 359.07687378 C172.95243552 358.66431263 171.31889436 358.24192438 169.68792725 357.80993652 C166.15893564 356.88522992 162.60658003 356.07198546 159.05078125 355.2578125 C158.37281494 355.10013901 157.69484863 354.94246552 156.99633789 354.78001404 C116.58464636 345.38642643 75.41405308 339.99112837 33.9375 338.625 C32.7515625 338.58181641 31.565625 338.53863281 30.34375 338.49414062 C-31.74908192 336.38191146 -97.86951207 342.32241217 -157.46850586 360.76293945 C-161.52315557 361.53871631 -164.13915358 360.09264852 -167.49609375 357.921875 C-168.23150391 357.45096436 -168.96691406 356.98005371 -169.72460938 356.49487305 C-170.51673828 355.98093994 -171.30886719 355.46700684 -172.125 354.9375 C-173.85244733 353.83398198 -175.58032679 352.73114017 -177.30859375 351.62890625 C-178.20046387 351.0580127 -179.09233398 350.48711914 -180.01123047 349.89892578 C-212.84418877 328.90284499 -247.04237749 309.68528127 -283.6875 296.1875 C-284.52490723 295.87844727 -285.36231445 295.56939453 -286.22509766 295.25097656 C-307.57029204 287.49146816 -328.932977 283.25143252 -351.6875 286.1875 C-351.88545166 287.28010132 -351.88545166 287.28010132 -352.08740234 288.39477539 C-352.64722116 291.000051 -353.38320821 293.36861374 -354.2890625 295.87109375 C-364.50015075 324.79271748 -370.69793629 354.51102507 -371.6875 385.1875 C-371.749375 386.92 -371.749375 386.92 -371.8125 388.6875 C-372.26951241 414.2801949 -368.37324074 439.34740206 -360.95703125 463.78125 C-360.73635986 464.54751709 -360.51568848 465.31378418 -360.28833008 466.10327148 C-359.77929082 467.86908544 -359.23699057 469.62525862 -358.6875 471.37890625 C-358.6875 475.6100372 -361.10363415 477.72198277 -363.875 480.625 C-364.99434574 481.86393891 -366.11146835 483.10488935 -367.2265625 484.34765625 C-367.8030957 484.98203613 -368.37962891 485.61641602 -368.97363281 486.27001953 C-407.67297436 529.56697516 -422.95125745 580.07039609 -422.875 637.625 C-422.87409363 638.89815063 -422.87409363 638.89815063 -422.87316895 640.19702148 C-422.76254868 697.96238186 -415.40344604 758.62903569 -387.6875 810.1875 C-387.34106445 810.84556641 -386.99462891 811.50363281 -386.63769531 812.18164062 C-373.17747053 837.67355765 -354.02231288 860.23288348 -330.6875 877.1875 C-330.03604004 877.66155273 -329.38458008 878.13560547 -328.71337891 878.62402344 C-301.28263033 898.30474743 -270.16112468 910.62214789 -237.6875 919.1875 C-236.23802979 919.57349365 -236.23802979 919.57349365 -234.75927734 919.96728516 C-204.99933734 927.7847773 -174.56121865 931.95387527 -144.09375 935.890625 C-142.78310577 936.05999573 -142.78310577 936.05999573 -141.44598389 936.23278809 C-137.10626032 936.78424748 -132.76664122 937.29303335 -128.4140625 937.73242188 C-127.58015991 937.81788269 -126.74625732 937.90334351 -125.88708496 937.99139404 C-124.31504904 938.14934354 -122.74220983 938.29955656 -121.1685791 938.44073486 C-115.90761983 938.96738017 -115.90761983 938.96738017 -113.6875 941.1875 C-114.59628906 942.02667969 -114.59628906 942.02667969 -115.5234375 942.8828125 C-136.59067425 963.04253752 -147.4776864 989.69547948 -154.609375 1017.45703125 C-154.80104248 1018.20017578 -154.99270996 1018.94332031 -155.19018555 1019.70898438 C-155.75761954 1022.27070655 -155.75761954 1022.27070655 -155.91333008 1025.25976562 C-156.60750451 1033.24124798 -156.60750451 1033.24124798 -159.62939453 1035.88891602 C-162.3362659 1037.23167581 -164.98703325 1038.17371426 -167.875 1039.0625 C-169.41583252 1039.59544678 -169.41583252 1039.59544678 -170.98779297 1040.13916016 C-174.20382123 1041.22293374 -177.43545036 1042.21765098 -180.6875 1043.1875 C-181.67733887 1043.48914062 -182.66717773 1043.79078125 -183.68701172 1044.1015625 C-222.26979021 1055.62772139 -264.01247467 1056.92149068 -300.5 1038 C-326.67088283 1023.69905489 -345.4890508 1001.74765695 -360.39282227 976.35107422 C-366.70449491 965.64067205 -374.16022502 956.2390559 -382.6875 947.1875 C-383.28691406 946.52363281 -383.88632813 945.85976562 -384.50390625 945.17578125 C-402.17874703 926.35570241 -427.26814969 915.08635696 -451.6875 908.1875 C-452.97527344 907.81431641 -452.97527344 907.81431641 -454.2890625 907.43359375 C-466.09104385 904.53379421 -481.19493951 904.57501548 -492.1875 909.875 C-494.8884993 912.04141874 -494.8884993 912.04141874 -495.9375 915.3125 C-495.41713232 923.37819903 -489.8375809 929.73865931 -484.1328125 935.12890625 C-477.32525021 940.85987322 -469.94501598 945.82730382 -462.37255859 950.48193359 C-449.75981821 958.28075853 -439.64439264 968.38084137 -430.6875 980.1875 C-430.22520996 980.79658203 -429.76291992 981.40566406 -429.28662109 982.03320312 C-412.2857195 1004.71620905 -399.23672431 1030.45486782 -389.05859375 1056.8515625 C-377.03513991 1086.10520803 -353.71625766 1106.94956575 -324.953125 1119.24609375 C-305.06781715 1127.40525173 -284.01775864 1131.90316301 -262.6875 1134.1875 C-261.8197998 1134.2817627 -260.95209961 1134.37602539 -260.05810547 1134.47314453 C-250.86038012 1135.35854637 -241.66976615 1135.42883965 -232.4375 1135.4375 C-231.16475723 1135.43950912 -231.16475723 1135.43950912 -229.86630249 1135.44155884 C-209.44598327 1135.43463386 -189.40184328 1133.69213972 -169.21362305 1130.62817383 C-168.29392479 1130.4893705 -167.37422653 1130.35056717 -166.42665863 1130.20755768 C-164.18014311 1129.86838441 -161.93376204 1129.52834726 -159.6875 1129.1875 C-159.55458786 1144.76957401 -159.42414709 1160.35166685 -159.29634857 1175.93378353 C-159.23690478 1183.17518496 -159.17674518 1190.41657894 -159.11474609 1197.65795898 C-158.98452447 1212.90922219 -158.86394864 1228.16047605 -158.76730347 1243.41199303 C-158.71824984 1251.04692517 -158.65633955 1258.68157806 -158.58260345 1266.31630993 C-158.54181095 1270.86375561 -158.51377623 1275.41121152 -158.48951721 1279.95877266 C-158.47588907 1282.03912063 -158.45705042 1284.11944235 -158.43247986 1286.19968987 C-158.26899808 1300.36588072 -158.23808169 1312.72313219 -167.6875 1324.1875 C-175.91687896 1332.41687896 -185.76680541 1334.54780674 -197.07080078 1334.56591797 C-205.44238918 1334.37476887 -212.88258368 1332.00826143 -220.6875 1329.1875 C-221.61256348 1328.85459961 -222.53762695 1328.52169922 -223.49072266 1328.17871094 C-258.00676363 1315.5957333 -291.73812814 1300.31531833 -323.6875 1282.1875 C-324.78545898 1281.5677832 -325.88341797 1280.94806641 -327.01464844 1280.30957031 C-345.53988395 1269.826189 -363.27368573 1258.42228923 -380.6875 1246.1875 C-381.59161621 1245.55263672 -382.49573242 1244.91777344 -383.42724609 1244.26367188 C-393.4254342 1237.20977111 -403.1547227 1229.85670714 -412.6875 1222.1875 C-413.31865723 1221.68250977 -413.94981445 1221.17751953 -414.60009766 1220.65722656 C-431.31397341 1207.27459631 -447.72877645 1193.40802027 -462.73266602 1178.1081543 C-464.58440618 1176.28879126 -466.49398142 1174.60490774 -468.47265625 1172.92578125 C-472.52102834 1169.40495115 -476.18465227 1165.63481492 -479.8125 1161.6875 C-481.11970735 1160.27726559 -482.42700113 1158.86711128 -483.734375 1157.45703125 C-484.38986328 1156.74756348 -485.04535156 1156.0380957 -485.72070312 1155.30712891 C-487.62013621 1153.26009837 -489.53340205 1151.22721569 -491.453125 1149.19921875 C-497.34870125 1142.96162957 -503.07136003 1136.6853949 -508.4296875 1129.97265625 C-510.54269587 1127.36612516 -512.71617603 1124.83209786 -514.92114258 1122.30395508 C-522.24342753 1113.89470398 -529.03675485 1105.13428824 -535.6875 1096.1875 C-536.47012207 1095.1363501 -536.47012207 1095.1363501 -537.26855469 1094.06396484 C-575.59541363 1042.35255485 -606.92736983 985.39123271 -629.6875 925.1875 C-629.9339325 924.53648315 -630.18036499 923.88546631 -630.43426514 923.21472168 C-651.01574427 868.6517426 -664.50385448 811.44574715 -671 753.5 C-671.14727539 752.19289063 -671.29455078 750.88578125 -671.44628906 749.5390625 C-671.92290994 745.09364959 -672.31760971 740.64296434 -672.6875 736.1875 C-672.7739679 735.14785095 -672.86043579 734.1082019 -672.94952393 733.03704834 C-674.44607472 714.45605541 -675.00952326 696.00487147 -674.94824219 677.37402344 C-674.93684866 673.88577205 -674.94365287 670.39782607 -674.95511341 666.909585 C-675.02806707 640.73895647 -673.51253956 614.75679401 -670.5 588.75 C-670.39490112 587.83337585 -670.28980225 586.91675171 -670.18151855 585.97235107 C-660.46821769 502.2125979 -634.92602794 420.20053639 -575.6875 312.1875 C-575.14351562 311.29562988 -574.59953125 310.40375977 -574.0390625 309.48486328 C-563.80844774 292.78546197 -552.61019592 276.72181548 -540.6875 261.1875 C-539.86953455 260.1121747 -539.05183676 259.03664576 -538.234375 257.9609375 C-525.9915758 241.89491529 -512.9570736 226.53850335 -499.16992188 211.78320312 C-497.71197183 210.21384188 -496.26795584 208.63286151 -494.828125 207.046875 C-489.17042689 200.82744006 -483.37159711 194.7693569 -477.4375 188.8125 C-476.78813477 188.15854248 -476.13876953 187.50458496 -475.46972656 186.83081055 C-471.625716 182.99900164 -467.66614387 179.35970464 -463.55810547 175.81298828 C-460.94012152 173.53805521 -458.41291746 171.17649025 -455.875 168.8125 C-451.20451463 164.49837622 -446.40000344 160.40571858 -441.4453125 156.41796875 C-438.6164335 154.1300227 -435.84002458 151.78742202 -433.0625 149.4375 C-367.35955661 94.65682426 -288.53532962 53.94383258 -48.6875 1.1875 C-47.67648727 1.11651596 -47.67648727 1.11651596 -46.64505005 1.0440979 C-31.10976493 -0.02151716 -15.56558015 -0.01377235 0 0 Z " fill="#000000" transform="translate(1490.6875,332.8125)"/>
<path d="M0 0 C3.80777888 2.53851925 5.92533958 4.48642624 7 9 C6.92208028 12.81806622 6.49319115 14.4470281 3.9375 17.3125 C-1.58313826 20.48393049 -6.14218022 20.44942626 -12.125 18.875 C-17.08816685 17.21551278 -21.5647349 14.87053019 -24 10 C-24.41465022 6.268148 -24.297997 4.48562474 -22.3125 1.25 C-15.7524217 -5.13277889 -7.56632148 -3.99730191 0 0 Z " fill="#000000" transform="translate(1211,1390)"/>
<path d="M0 0 C5.61817728 2.80908864 9.30795492 7.00046554 12.375 12.4375 C13.23713769 15.97226454 12.89472954 18.48499111 12 22 C10.4375 24.4375 10.4375 24.4375 8 26 C2.72195437 26.69220271 -0.71198992 26.30155921 -5.328125 23.34765625 C-8.84366647 20.51386698 -11.97454581 17.05090838 -14 13 C-14.68288206 6.05736576 -14.68288206 6.05736576 -12.0625 2 C-7.92908583 -0.69937252 -4.80683472 -0.91032091 0 0 Z " fill="#000000" transform="translate(1155,1357)"/>
<path d="M0 0 C2.41648383 3.62472574 2.56297188 5.53178608 1.875 9.8125 C-0.31579394 13.33341883 -2.27232923 15.34018306 -6.125 16.8125 C-9.5859375 17.1484375 -9.5859375 17.1484375 -13.5 17.1875 C-14.78648438 17.21585938 -16.07296875 17.24421875 -17.3984375 17.2734375 C-21.71002352 16.7401386 -23.81160418 15.57777818 -27.125 12.8125 C-28.98822425 8.78793563 -29.43498831 6.81996199 -28.125 2.5625 C-25.05230601 -1.66245424 -21.84188791 -2.75827802 -16.875 -4 C-10.5690498 -4.31529751 -5.23711839 -3.66598287 0 0 Z " fill="#000000" transform="translate(1272.125,1400.1875)"/>
<path d="M0 0 C3.54812763 1.94142832 5.34282792 3.28350419 7.3125 6.8125 C7.3125 10.44900902 6.56396426 12.39661681 4.6875 15.5 C-0.91032923 20.95051794 -6.31795681 21.15247759 -13.8203125 21.2109375 C-17.11486967 20.75311075 -19.01465279 19.76244191 -21.6875 17.8125 C-23.30681552 14.57386897 -23.25466392 11.31327043 -22.6875 7.8125 C-17.39824213 -0.68236871 -9.32271435 -3.00223004 0 0 Z " fill="#000000" transform="translate(1319.6875,1390.1875)"/>
<path d="M0 0 C4.52497319 2.51387399 7.01567623 6.31424536 9 11 C10.12449062 15.65860399 10.4533544 18.7942496 8 23 C6.3125 24.875 6.3125 24.875 4 26 C-2.02863703 26.23187065 -5.05100707 23.73572838 -9.30078125 19.88671875 C-13.12623227 15.63914899 -13.45684083 11.92042545 -13.30078125 6.3515625 C-13 4 -13 4 -11.5625 1.375 C-7.70733305 -0.69362617 -4.27594679 -0.74330975 0 0 Z " fill="#000000" transform="translate(1122,1318)"/>
<path d="M0 0 C4.77585774 2.434751 7.60117067 5.20234134 10 10 C10.62683738 13.03459591 10.46253545 14.81364469 10 18 C7.9375 20.5625 7.9375 20.5625 5 22 C-0.42883445 22 -3.83238026 20.4098707 -8 17 C-11.19811705 13.26886345 -11.53390222 9.78907223 -11.34375 5.02734375 C-11 3 -11 3 -9.4375 0.9375 C-6.02540506 -0.37484421 -3.63514907 -0.43872489 0 0 Z " fill="#000000" transform="translate(1093,1282)"/>
<path d="M0 0 C3.75323079 0.0738825 6.34622989 0.26506706 9.375 2.5625 C12.03147886 5.77823757 13.01083999 7.26406024 12.75 11.4375 C10.8125 14.375 10.8125 14.375 7.75 16.4375 C1.8707389 16.5308216 -1.65082822 15.27014315 -6.25 11.4375 C-8.10854553 8.93250385 -8.29675708 7.92844934 -8 4.8125 C-6.5603507 0.25361055 -4.4029146 0.10225348 0 0 Z " fill="#000000" transform="translate(1061.25,1258.5625)"/>
</svg>
