<?xml version="1.0" encoding="UTF-8"?>
<svg version="1.1" xmlns="http://www.w3.org/2000/svg" width="2417" height="1567">
<path d="M0 0 C797.61 0 1595.22 0 2417 0 C2417 517.11 2417 1034.22 2417 1567 C1619.39 1567 821.78 1567 0 1567 C0 1049.89 0 532.78 0 0 Z " fill="#FEFEFE" transform="translate(0,0)"/>
<path d="M0 0 C1.09152374 -0.00301597 2.18304749 -0.00603194 3.30764771 -0.0091393 C4.50877067 -0.00736983 5.70989364 -0.00560036 6.94741428 -0.00377727 C8.22713257 -0.0058299 9.50685086 -0.00788253 10.8253485 -0.00999737 C14.39585182 -0.0155747 17.96633121 -0.01488965 21.5368375 -0.01321978 C25.41442101 -0.01249006 29.29199769 -0.01750838 33.16957831 -0.0217948 C40.86857278 -0.02938414 48.56756032 -0.03156833 56.26655814 -0.03212385 C65.48503772 -0.03303657 74.70351087 -0.03970138 83.92198769 -0.04647068 C106.2048509 -0.06254255 128.48771344 -0.06843528 150.7705814 -0.07321942 C161.3087555 -0.07555416 171.84692906 -0.07915667 182.38510274 -0.0829148 C218.44768169 -0.09575127 254.51026034 -0.10647045 290.57284153 -0.1099174 C292.83731184 -0.11013904 295.10178216 -0.11036082 297.36625247 -0.11058275 C299.63624099 -0.1108034 301.90622951 -0.11102388 304.17621803 -0.1112442 C308.73032566 -0.11168676 313.28443329 -0.11213387 317.83854091 -0.11258388 C318.96769769 -0.11269327 320.09685448 -0.11280266 321.26022813 -0.11291536 C357.879477 -0.11654661 394.49870609 -0.13246873 431.11794738 -0.15577424 C469.82018463 -0.18036045 508.52241057 -0.19408968 547.22465587 -0.19528532 C551.47177359 -0.19545678 555.7188913 -0.19567221 559.96600902 -0.19591975 C561.0117937 -0.19597552 562.05757839 -0.19603129 563.13505351 -0.19608875 C579.97772478 -0.19724025 596.82037578 -0.20827063 613.6630402 -0.22280681 C630.58682651 -0.23716062 647.51058678 -0.24041511 664.43437751 -0.23236683 C674.49256928 -0.22790531 684.55067709 -0.23179203 694.60885786 -0.24760534 C701.32598666 -0.25733992 708.0430565 -0.25619165 714.76018473 -0.24616911 C718.58847718 -0.24076608 722.41660815 -0.24010223 726.24488737 -0.25267783 C730.3697669 -0.26611473 734.49426823 -0.2563274 738.61915195 -0.2442863 C739.80622792 -0.25188149 740.99330389 -0.25947669 742.21635187 -0.26730204 C753.86024394 -0.19366274 762.78196733 2.42570441 771.66080654 10.1276505 C780.52758627 19.41110221 782.11108276 27.8778 781.95859706 40.36065221 C781.95328869 41.70098523 781.94935419 43.04132427 781.94666779 44.38166511 C781.93793306 47.28580823 781.91963236 50.18967861 781.89392459 53.09372067 C781.85214753 57.81971195 781.83130481 62.5456678 781.81301296 67.27180028 C781.78834878 73.24505496 781.75805608 79.21823729 781.72115812 85.19142903 C781.64873261 96.92915684 781.61351822 108.66673763 781.59177577 120.40465856 C781.58816073 122.25426905 781.58452419 124.10387949 781.58086646 125.9534899 C781.57535346 128.75627076 781.56986368 131.55905165 781.56446289 134.36183273 C781.54397549 144.92017639 781.5194329 155.47850652 781.49039638 166.03683019 C781.48775583 167.00163287 781.48511529 167.96643556 781.48239473 168.96047468 C781.43817845 184.59923513 781.34974374 200.2374881 781.24772653 215.87596421 C781.14422544 231.94284306 781.09804647 248.00920504 781.10245717 264.0764178 C781.10317302 273.98169653 781.05787414 283.88459656 780.95321545 293.78933205 C780.88555751 300.57786933 780.87280467 307.36512266 780.90299526 314.15392445 C780.91872396 318.0695796 780.91019882 321.98118668 780.83572376 325.89625287 C779.85427176 340.75655409 779.85427176 340.75655409 784.14200294 354.33814406 C788.0986207 358.24752302 792.5334911 360.14836328 797.66080654 362.1276505 C800.33084667 363.85395932 800.33084667 363.85395932 802.28190029 365.34249425 C802.91805263 365.79495519 803.55420497 366.24741612 804.20963466 366.713588 C804.83289638 367.15960362 805.4561581 367.60561925 806.09830654 368.0651505 C811.58765192 371.9666687 817.10230622 375.82529616 822.66080654 379.6276505 C828.13258546 383.37210084 833.56517295 387.16688168 838.97330654 391.0026505 C844.99500642 395.27217988 851.06037339 399.47144055 857.16080654 403.6276505 C863.11251413 407.68364234 869.034677 411.77537159 874.91080654 415.9401505 C888.69847111 425.71118099 902.57428576 435.35672513 916.53580654 444.8776505 C925.31166846 450.86698243 934.02866061 456.93278823 942.66080654 463.1276505 C943.6005331 463.79538487 944.54025966 464.46311925 945.50846279 465.151088 C953.56472609 471.09577645 959.1212436 478.33806507 961.66080654 488.1276505 C962.25413146 494.28027308 962.22569926 500.4064672 962.20670497 506.58297276 C962.21546305 508.48413762 962.2259466 510.38529515 962.23798835 512.28644204 C962.2661306 517.54806896 962.26918353 522.80946217 962.2682482 528.0711534 C962.27157176 533.86944267 962.29792663 539.66763861 962.32097805 545.46587682 C962.36080809 556.41117784 962.38170758 567.35643524 962.39334287 578.30179814 C962.40431791 588.59396225 962.42277221 598.88607967 962.44825161 609.17821813 C962.45167703 610.5745744 962.45509954 611.97093069 962.45851916 613.36728698 C962.46022417 614.06300903 962.46192918 614.75873109 962.46368585 615.47553563 C962.46539821 616.17434252 962.46711057 616.8731494 962.46887481 617.59313226 C962.47059861 618.29493284 962.4723224 618.99673342 962.47409843 619.71980068 C962.54538138 648.89292968 962.58479341 678.06606008 962.61492443 707.23925674 C962.64382458 735.09506391 962.68909223 762.95081503 962.74230731 790.80658591 C962.82511972 834.16634726 962.88995879 877.52609374 962.9308089 920.88591599 C962.93406738 924.32201334 962.93733387 927.75811069 962.94061242 931.19420802 C962.9427949 933.48213375 962.94496425 935.7700595 962.94712044 938.05798525 C962.96352249 955.24000797 962.9898185 972.42199732 963.02079189 989.60399938 C963.056313 1009.35974784 963.07702958 1029.11545349 963.07903463 1048.87123489 C963.08057796 1060.09592999 963.09333188 1071.32048497 963.12161145 1082.5451452 C963.13955057 1090.11583199 963.14280341 1097.68643444 963.13425001 1105.25713737 C963.12976199 1109.59248073 963.13163259 1113.92756638 963.15109956 1118.26287401 C963.16872773 1122.2207654 963.16773558 1126.17820823 963.15219235 1130.13610436 C963.14981871 1131.55909634 963.15411386 1132.98211968 963.16601724 1134.40506385 C963.25893961 1146.24421688 961.39561663 1155.88136299 953.64127529 1165.12374425 C944.89366476 1173.9748768 935.04176435 1176.42759191 922.93738788 1176.52405469 C920.30062285 1176.52857455 917.66413017 1176.51834059 915.02738464 1176.50796723 C913.10301765 1176.51140149 911.17865263 1176.51614878 909.25429174 1176.5220882 C903.95305979 1176.53462143 898.65198835 1176.5284372 893.35075559 1176.51925452 C887.58838304 1176.5125575 881.82603852 1176.52320441 876.06367189 1176.53165036 C865.9599597 1176.54403973 855.85629393 1176.54521992 845.75257671 1176.53909993 C834.91189035 1176.53255104 824.07123455 1176.5323475 813.23054874 1176.54014707 C812.54572181 1176.54063506 811.86089488 1176.54112306 811.15531562 1176.54162585 C808.36609921 1176.54363404 805.57688284 1176.54568714 802.78766651 1176.54779759 C774.47385823 1176.56919852 746.16007145 1176.57125205 717.84625711 1176.56574055 C713.93393037 1176.56498484 710.02160364 1176.56425722 706.10927689 1176.56355858 C705.3322014 1176.56341949 704.55512592 1176.5632804 703.75450269 1176.56313709 C686.53543073 1176.56018515 669.31636136 1176.56319724 652.09728986 1176.56745487 C649.74086397 1176.56803702 647.38443807 1176.56860587 645.02801217 1176.5691705 C638.71129763 1176.57068544 632.39458309 1176.57221235 626.07786856 1176.57376351 C581.98042532 1176.5845207 537.88298448 1176.58922153 493.78554046 1176.58129334 C492.95425502 1176.58114504 492.12296958 1176.58099673 491.26649367 1176.58084393 C481.99668412 1176.57918492 472.72687458 1176.57743534 463.45706505 1176.57565092 C462.20166302 1176.57540939 462.20166302 1176.57540939 460.92089933 1176.57516297 C454.12835622 1176.57385516 454.12835622 1176.57385516 450.76700087 1176.57320178 C397.22646339 1176.56280906 343.68595877 1176.57057892 290.14542568 1176.59420323 C276.65362257 1176.60014656 263.16181944 1176.60603809 249.67001617 1176.61161256 C248.83929161 1176.61195633 248.00856704 1176.6123001 247.15266901 1176.61265429 C221.55361506 1176.62318019 195.95456385 1176.6287756 170.35550773 1176.6291697 C169.55193773 1176.62918248 168.74836773 1176.62919527 167.92044713 1176.62920844 C150.28118097 1176.62943672 132.64191505 1176.62843073 115.00264903 1176.62629938 C108.69124053 1176.62554461 102.37983202 1176.6248664 96.0684235 1176.62421923 C94.49828865 1176.62405654 92.92815379 1176.62388888 91.35801894 1176.62371622 C66.33041836 1176.62099405 41.30283772 1176.62955345 16.27524143 1176.64357032 C-9.62806673 1176.65797128 -35.53133694 1176.65753645 -61.4346438 1176.6401956 C-64.21560737 1176.63839139 -66.99657096 1176.6366512 -69.7775346 1176.63496137 C-70.46003611 1176.63454087 -71.14253761 1176.63412036 -71.84572098 1176.63368712 C-83.31483273 1176.62700349 -94.78388112 1176.6361386 -106.2529857 1176.64943029 C-116.22367358 1176.65988185 -126.194287 1176.65587304 -136.16496749 1176.63995025 C-141.85146106 1176.63127821 -147.53776336 1176.6289917 -153.22424745 1176.64421957 C-158.39571751 1176.65793807 -163.5668315 1176.65330536 -168.73828051 1176.63393438 C-170.59905544 1176.63019363 -172.45985892 1176.63317437 -174.32060814 1176.64364747 C-186.06041687 1176.70517934 -196.68661135 1176.39772698 -205.74153721 1167.963588 C-211.96286363 1160.8143865 -215.57414498 1152.87107243 -215.61514294 1143.3717587 C-215.62067047 1142.71346586 -215.626198 1142.05517303 -215.63189302 1141.37693192 C-215.64799403 1139.17048316 -215.65001504 1136.96425018 -215.65209019 1134.75774693 C-215.66080297 1133.15519579 -215.67037165 1131.55264911 -215.68072009 1129.95010769 C-215.70666156 1125.53444458 -215.72015982 1121.11881721 -215.73158163 1116.70309585 C-215.74604014 1111.91754494 -215.77171922 1107.13205181 -215.79583943 1102.34654164 C-215.84160819 1092.88168579 -215.8762188 1083.41681878 -215.90700385 1073.95190355 C-215.93268912 1066.11796053 -215.96258743 1058.28404325 -215.99515736 1050.45012593 C-216.13128907 1017.60044362 -216.2382472 984.75071907 -216.32879198 951.90088081 C-216.33913938 948.14727042 -216.34958072 944.39366029 -216.36002743 940.64005017 C-216.53469825 877.58273595 -216.64436914 814.52548767 -216.68023884 751.46794057 C-216.68320009 746.36541546 -216.6862213 741.26289039 -216.68929112 736.16036534 C-216.69004058 734.89559207 -216.69079004 733.6308188 -216.69156221 732.32771906 C-216.70411431 711.99296263 -216.73567613 691.65827089 -216.77521264 671.32355274 C-216.8191925 648.6605436 -216.84490105 625.99758209 -216.85030627 603.33453 C-216.85369097 591.15054362 -216.86512653 578.96668941 -216.89840901 566.78274465 C-216.92630366 556.56764041 -216.93744588 546.35269708 -216.92621355 536.13755764 C-216.92103333 530.95390559 -216.92388536 525.77059236 -216.94867909 520.58698964 C-216.9711755 515.84604568 -216.97043073 511.10568456 -216.95147522 506.36473034 C-216.94867944 504.65723358 -216.95425015 502.94969699 -216.96928816 501.24226417 C-217.07442442 488.52838353 -215.44705185 477.46954793 -206.28938878 467.88888097 C-202.84169832 464.77525566 -199.10312053 462.2177762 -195.21419346 459.6901505 C-193.51737853 458.55894055 -191.82076437 457.42742939 -190.12434971 456.29561925 C-189.30337803 455.75340734 -188.48240635 455.21119542 -187.63655674 454.65255284 C-184.61112789 452.64438827 -181.63056204 450.57928354 -178.65169346 448.5026505 C-174.74509435 445.79204911 -170.83238645 443.0908848 -166.91145909 440.401088 C-156.53511105 433.28230961 -146.21123268 426.08857059 -135.88411534 418.89864659 C-124.11337706 410.70745939 -112.29870383 402.57973634 -100.46809971 394.47530675 C-93.06353057 389.39922435 -85.68921669 384.28244816 -78.33919346 379.1276505 C-72.27300861 374.87324823 -66.19806164 370.63308001 -60.08919346 366.4401505 C-59.55561529 366.05327563 -59.02203712 365.66640077 -58.47228992 365.26780242 C-55.12861195 362.88731478 -51.93641144 360.8706939 -48.14721119 359.27686715 C-43.33100109 357.04432208 -39.36067214 354.58744071 -36.33919346 350.1276505 C-33.46783967 341.12898821 -34.25768132 331.20875495 -34.45623672 321.85921943 C-34.52156902 317.94843665 -34.49369611 314.03814934 -34.47730076 310.12700963 C-34.46136529 303.35784382 -34.50326609 296.59104968 -34.58457768 289.82238126 C-34.70182021 280.02566975 -34.72628946 270.23040291 -34.72785977 260.43306936 C-34.73253644 244.52190054 -34.80555518 228.61183385 -34.92464268 212.70113683 C-35.03989902 197.2753984 -35.13305766 181.84986784 -35.18929112 166.42379308 C-35.19450841 164.99837069 -35.19450841 164.99837069 -35.1998311 163.54415189 C-35.23716503 153.16401835 -35.26798599 142.78387422 -35.2937566 132.40370584 C-35.29719389 131.03430735 -35.29719389 131.03430735 -35.30070062 129.63724424 C-35.31949723 122.13372983 -35.31949723 122.13372983 -35.32749477 118.68697894 C-35.35257748 108.01449387 -35.39747682 97.34250754 -35.47810802 86.67029024 C-35.52850383 79.97607084 -35.56647516 73.28186515 -35.59481803 66.58751612 C-35.61517199 61.98926535 -35.65206513 57.39157407 -35.70223258 52.79355731 C-35.73457641 49.34326008 -35.74054482 45.89300917 -35.75050938 42.44257665 C-35.76918371 41.23021398 -35.78785805 40.0178513 -35.80709827 38.76875037 C-35.79218497 28.09342197 -32.97107847 18.94120921 -25.40169346 11.1276505 C-18.04405886 4.17877338 -10.22324624 0.00559317 0 0 Z " fill="#1C3343" transform="translate(835.3391934633255,194.87234950065613)"/>
<path d="M0 0 C222.75 0 445.5 0 675 0 C675 174.24 675 348.48 675 528 C670.545 530.475 670.545 530.475 666 533 C663.51683916 534.73587732 661.09465141 536.48060978 658.6875 538.3125 C654.29616117 541.59248096 649.89487519 544.80085398 645.3125 547.8125 C640.03607867 551.28086762 634.85512223 554.87163751 629.6875 558.5 C628.83752441 559.09675537 627.98754883 559.69351074 627.11181641 560.30834961 C626.23960449 560.92073486 625.36739258 561.53312012 624.46875 562.1640625 C618.88603884 566.08362448 613.28842174 569.98151971 607.6875 573.875 C606.72803467 574.54208984 605.76856934 575.20917969 604.7800293 575.89648438 C602.82785866 577.25366586 600.87562869 578.610762 598.92333984 579.96777344 C595.0705043 582.6461602 591.21855576 585.3258208 587.36669922 588.00561523 C585.45823685 589.33334723 583.54970839 590.66098422 581.64111328 591.98852539 C576.76108965 595.38290841 571.88184608 598.77840423 567.00390625 602.17578125 C558.62098483 608.01304247 550.23822419 613.84963106 541.8125 619.625 C535.15228169 624.19098193 528.53415056 628.81551058 521.92211914 633.45092773 C508.23504748 643.04476689 494.52430856 652.60489568 480.73144531 662.04614258 C475.08683123 665.91893429 469.4993539 669.87133003 463.93212891 673.85449219 C459.39283428 677.08366971 454.75555856 680.09891956 450 683 C441.68038848 676.69079488 433.38383095 670.36036814 425.25 663.8125 C418.57565395 658.43971716 411.80858582 653.20111994 405 648 C396.09119135 641.1680219 387.21783793 634.29164104 378.359375 627.39453125 C377.6473291 626.84015381 376.9352832 626.28577637 376.20166016 625.71459961 C374.67500567 624.52567807 373.14865974 623.33636025 371.62255859 622.14672852 C358.79295077 612.1529859 348.10239986 604.0298706 331 606 C322.11555639 607.75220971 315.72221787 612.8698713 308.87207031 618.48144531 C305.39972522 621.29808413 301.84846865 624.01401911 298.3125 626.75 C296.76649784 627.95257338 295.22092919 629.15570427 293.67578125 630.359375 C288.37298735 634.48855451 283.06763176 638.61443605 277.76220703 642.74023438 C273.94873409 645.70599212 270.13589046 648.67255251 266.32421875 651.640625 C253.92141662 661.29634946 253.92141662 661.29634946 249.47265625 664.71484375 C248.9317334 665.13056641 248.39081055 665.54628906 247.83349609 665.97460938 C246.28167094 667.16324141 244.72486681 668.34536411 243.16796875 669.52734375 C240.82048058 671.33042234 238.5545913 673.21016146 236.30078125 675.12890625 C235.67719727 675.64880127 235.05361328 676.16869629 234.41113281 676.7043457 C233.2074055 677.71079018 232.01700567 678.7334641 230.84277344 679.77416992 C229.19140625 681.140625 229.19140625 681.140625 226 683 C221.5919822 682.30691544 218.61786502 680.24631482 215.125 677.5625 C210.5291438 674.11560785 205.86844454 670.80338375 201.125 667.5625 C200.43583496 667.09054199 199.74666992 666.61858398 199.03662109 666.13232422 C197.66494197 665.19302571 196.2930384 664.25405487 194.92089844 663.31542969 C187.55744333 658.27294162 180.23726003 653.16917387 172.93164062 648.04345703 C163.0789611 641.13190396 153.17264673 634.30424912 143.22998047 627.52294922 C139.09464413 624.69875083 134.96958729 621.85961981 130.84448242 619.02050781 C127.5810202 616.77445634 124.31606715 614.53067441 121.046875 612.29296875 C114.2864442 607.66203629 107.55778081 602.9923902 100.875 598.25 C93.50880284 593.02592195 86.05883703 587.93166006 78.58886719 582.85742188 C70.75146198 577.52766102 62.96608448 572.12566424 55.19165039 566.70458984 C49.7456211 562.90775939 44.28943692 559.1270938 38.8125 555.375 C30.31131521 549.54814626 21.87335272 543.63126967 13.43847656 537.70898438 C11.69751817 536.48884934 9.95444264 535.27173289 8.20996094 534.05664062 C7.3027832 533.42435547 6.39560547 532.79207031 5.4609375 532.140625 C4.21642822 531.2748584 4.21642822 531.2748584 2.94677734 530.39160156 C1 529 1 529 0 528 C-0.09900263 525.2022651 -0.13175233 522.4291965 -0.12304783 519.63098049 C-0.12420157 518.7380383 -0.12535532 517.8450961 -0.12654402 516.92509506 C-0.12921731 513.89498644 -0.1246837 510.86492959 -0.12025452 507.83482361 C-0.12069147 505.66135139 -0.12156751 503.48787923 -0.12284851 501.31440735 C-0.1251044 495.29912507 -0.12106056 489.2838604 -0.11607273 483.26858036 C-0.11217335 477.37381468 -0.11299139 471.47905084 -0.11368043 465.58428418 C-0.11492463 453.5906567 -0.11162031 441.59703467 -0.10557556 429.60340881 C-0.09741661 413.38636115 -0.09547351 397.16932152 -0.09460449 380.95227051 C-0.08934744 341.94734589 -0.07538642 302.94242284 -0.0625 263.9375 C-0.041875 176.838125 -0.02125 89.73875 0 0 Z " fill="#FEFEFE" transform="translate(871,267)"/>
<path d="M0 0 C3.46119116 1.28705034 6.01846957 3.33701991 8.82421875 5.66796875 C10.07229187 6.67655489 11.32102202 7.68432839 12.5703125 8.69140625 C13.23015137 9.22733398 13.88999023 9.76326172 14.56982422 10.31542969 C18.13773381 13.18964932 21.76471585 15.98745724 25.38671875 18.79296875 C26.92333791 19.98677218 28.45979471 21.18078463 29.99609375 22.375 C31.14754883 23.26952881 31.14754883 23.26952881 32.32226562 24.18212891 C35.34757556 26.53280749 38.37173533 28.88496267 41.39575195 31.23730469 C42.8915777 32.40085146 44.38750896 33.56426259 45.88354492 34.72753906 C49.64799327 37.65476233 53.41115797 40.58360912 57.171875 43.515625 C64.55161044 49.26663597 71.94683786 54.99491205 79.38671875 60.66796875 C85.04815895 64.98544688 90.67414299 69.34328798 96.26538086 73.7512207 C106.88488017 82.1225222 117.56458038 90.41509414 128.32421875 98.60546875 C134.30534751 103.15862706 140.19460207 107.81065207 146.04370117 112.53173828 C151.1550534 116.63838717 156.38750041 120.56621205 161.64990234 124.47631836 C166.92890194 128.41340628 172.08044361 132.49118951 177.20751953 136.62329102 C183.27458096 141.50935957 189.44214246 146.25755093 195.63671875 150.98046875 C204.33422407 157.61282272 213.02248874 164.25150263 221.60913086 171.02709961 C225.43016287 174.04012141 229.27442248 177.02056179 233.13671875 179.98046875 C237.55569195 183.36823703 241.94986779 186.78527736 246.32421875 190.23046875 C257.39018422 198.94028368 268.45536812 207.64619713 279.76171875 216.04296875 C285.95477229 220.64510384 291.95817347 225.44505426 297.92285156 230.33837891 C302.64935062 234.2066758 307.47299933 237.909039 312.3828125 241.54296875 C316.49657783 244.60316105 320.53154495 247.76485111 324.57421875 250.91796875 C329.7500153 254.95436152 334.92956445 258.98458676 340.13671875 262.98046875 C349.12199395 269.88007781 358.05114863 276.85197994 366.98925781 283.8125 C378.04370588 292.42139624 378.04370588 292.42139624 389.13671875 300.98046875 C398.12199395 307.88007781 407.05114863 314.85197994 415.98925781 321.8125 C417.54463033 323.02360291 419.10013058 324.2345418 420.65576172 325.4453125 C422.17076496 326.62454432 423.68542014 327.80422344 425.19970703 328.984375 C428.65998341 331.67834322 432.12756385 334.36097234 435.62109375 337.01171875 C436.22912842 337.47416992 436.83716309 337.93662109 437.46362305 338.41308594 C439.08262552 339.64197008 440.7052382 340.8660939 442.328125 342.08984375 C444.63671875 343.98046875 444.63671875 343.98046875 445.63671875 345.98046875 C361.25557617 346.32927153 276.87423823 346.65044472 -10.08203125 347.078125 C-11.72670444 347.07809658 -13.37137763 347.07806843 -15.01605082 347.07804054 C-54.37765002 347.07724285 -93.73924547 347.06788356 -133.10084212 347.05420308 C-158.44385549 347.0453954 -183.78686821 347.03927526 -209.12988281 347.03540039 C-209.9843965 347.03526886 -210.83891019 347.03513734 -211.71931823 347.03500183 C-220.31258393 347.03368158 -228.90584964 347.03240603 -237.49911535 347.03116297 C-254.95355253 347.02863708 -272.40798966 347.02581592 -289.86242676 347.02281189 C-290.66227131 347.0226746 -291.46211585 347.02253731 -292.28619812 347.02239586 C-344.3118938 347.01343246 -396.33758768 346.9976032 -448.36328125 346.98046875 C-445.53039269 344.12497769 -442.76140963 341.37356646 -439.5703125 338.921875 C-438.86712891 338.37853516 -438.16394531 337.83519531 -437.43945312 337.27539062 C-436.69244141 336.70369141 -435.94542969 336.13199219 -435.17578125 335.54296875 C-433.5572197 334.29436412 -431.93873217 333.04566353 -430.3203125 331.796875 C-429.49611816 331.16281738 -428.67192383 330.52875977 -427.82275391 329.87548828 C-423.99229868 326.92412899 -420.17824246 323.95180922 -416.36328125 320.98046875 C-414.86987056 319.81890898 -413.37638067 318.65745103 -411.8828125 317.49609375 C-408.81697031 315.11162383 -405.75196596 312.72608208 -402.6875 310.33984375 C-395.05868633 304.40063311 -387.41821482 298.47810908 -379.75 292.58984375 C-372.59574352 287.0862393 -365.48479267 281.5263199 -358.36328125 275.98046875 C-349.17682062 268.8265459 -339.98491398 261.68114532 -330.75 254.58984375 C-323.59574352 249.0862393 -316.48479267 243.5263199 -309.36328125 237.98046875 C-300.17682062 230.8265459 -290.98491398 223.68114532 -281.75 216.58984375 C-275.37606484 211.68652249 -269.03881391 206.73562015 -262.69384766 201.79492188 C-258.17249926 198.27484422 -253.64878601 194.75780651 -249.12548828 191.24023438 C-245.31201534 188.27447663 -241.49917171 185.30791624 -237.6875 182.33984375 C-230.06526488 176.40575467 -222.43188675 170.48768105 -214.76953125 164.60546875 C-210.62086757 161.414189 -206.49295644 158.19625575 -202.36328125 154.98046875 C-197.20770773 150.9658125 -192.04643897 146.95945852 -186.86328125 142.98046875 C-178.66629751 136.68617258 -170.51724131 130.33033553 -162.36328125 123.98046875 C-159.25944973 121.56337122 -156.1553593 119.14660736 -153.05078125 116.73046875 C-151.92265015 115.85249634 -151.92265015 115.85249634 -150.77172852 114.95678711 C-146.39660306 111.55433851 -142.01110595 108.16601156 -137.61328125 104.79296875 C-133.17302413 101.38468094 -128.76000612 97.94451845 -124.36328125 94.48046875 C-119.44342445 90.60425885 -114.49808023 86.76404128 -109.52807617 82.95214844 C-104.89611977 79.39686119 -100.28381787 75.81669114 -95.67578125 72.23046875 C-94.53894897 71.34572876 -94.53894897 71.34572876 -93.37915039 70.44311523 C-91.04032258 68.62249588 -88.70175313 66.80154524 -86.36328125 64.98046875 C-77.18340114 57.83167046 -67.99873743 50.69051592 -58.76953125 43.60546875 C-54.62086757 40.414189 -50.49295644 37.19625575 -46.36328125 33.98046875 C-40.19353366 29.17607295 -34.00779129 24.39407096 -27.8046875 19.6328125 C-22.66949096 15.68278033 -17.56269621 11.69597567 -12.453125 7.71289062 C-11.35484375 6.85727539 -11.35484375 6.85727539 -10.234375 5.984375 C-9.5839624 5.47720947 -8.9335498 4.97004395 -8.26342773 4.44750977 C-7.63637939 3.96338623 -7.00933105 3.4792627 -6.36328125 2.98046875 C-5.67218262 2.42311035 -4.98108398 1.86575195 -4.26904297 1.29150391 C-2.36328125 -0.01953125 -2.36328125 -0.01953125 0 0 Z " fill="#FEFEFE" transform="translate(1209.36328125,954.01953125)"/>
<path d="M0 0 C1.26972656 0.18175781 2.53945312 0.36351562 3.84765625 0.55078125 C21.16704758 3.16187093 38.99682897 7.86673123 55 15 C55.76199707 15.33870117 56.52399414 15.67740234 57.30908203 16.02636719 C88.8955065 30.20214803 118.75417573 51.35939298 140 79 C140.66128906 79.79535156 141.32257813 80.59070313 142.00390625 81.41015625 C147.20161862 87.66572006 151.65494587 94.30750253 155.90625 101.22509766 C156.93351002 102.8921022 157.98169087 104.54616312 159.03125 106.19921875 C169.26260175 123.02816835 175.21772215 141.77436744 179 161 C179.16226074 161.75120117 179.32452148 162.50240234 179.49169922 163.27636719 C184.54100049 186.92314652 184.05317443 214.41118793 179 238 C178.59974609 239.89105469 178.59974609 239.89105469 178.19140625 241.8203125 C168.42369927 282.01985324 144.78625122 320.15820349 109.21484375 342.4140625 C102.53244827 346.42997707 95.71534623 349.74215937 88.375 352.375 C87.74368164 352.60155273 87.11236328 352.82810547 86.46191406 353.06152344 C74.84616531 356.95294556 63.34982699 358.56145505 51.125 358.5 C49.81305664 358.49500488 48.50111328 358.49000977 47.14941406 358.48486328 C27.95864544 358.13987674 13.56325219 351.68222809 0 338 C-4 333.36518771 -4 333.36518771 -4 331 C-5.12592245 331.97810582 -6.25065233 332.95758435 -7.375 333.9375 C-8.11363281 334.576875 -8.85226562 335.21625 -9.61328125 335.875 C-11.18616787 337.27540969 -12.72690921 338.7129057 -14.23046875 340.1875 C-23.34515798 348.98157202 -34.56712798 355.28030925 -47 358 C-47.845625 358.20238281 -48.69125 358.40476562 -49.5625 358.61328125 C-66.83317077 362.30338096 -85.23593853 359.84699949 -101 352 C-101.79792969 351.608125 -102.59585937 351.21625 -103.41796875 350.8125 C-109.12015863 347.82891011 -114.06312668 344.10707628 -119 340 C-119.76957031 339.38898438 -120.53914063 338.77796875 -121.33203125 338.1484375 C-135.23286695 326.51575108 -144.15116483 311.55364641 -151 295 C-151.65935547 293.4221875 -151.65935547 293.4221875 -152.33203125 291.8125 C-165.37145026 258.21279859 -163.7964554 214.92308259 -150.07275391 181.75927734 C-143.65521894 167.35329936 -134.89780321 155.29963961 -124 144 C-123.33226562 143.26910156 -122.66453125 142.53820312 -121.9765625 141.78515625 C-106.47146586 125.2660132 -82.72257103 114.42102612 -60.1328125 113.69921875 C-58.1302969 113.67998434 -56.12757711 113.67638084 -54.125 113.6875 C-53.0728833 113.69241455 -52.0207666 113.6973291 -50.93676758 113.70239258 C-32.44115889 113.98109157 -16.72620132 121.03367987 -2 132 C-1.83564453 130.78763672 -1.83564453 130.78763672 -1.66796875 129.55078125 C-1.50941406 128.48214844 -1.35085938 127.41351563 -1.1875 126.3125 C-1.03667969 125.25675781 -0.88585938 124.20101562 -0.73046875 123.11328125 C0.26066112 118.88905396 1.59223333 116.151398 4.97607422 113.38378906 C9.35066914 111.38191566 13.36268742 111.55154077 18.12109375 111.56640625 C19.09861099 111.5611644 20.07612823 111.55592255 21.08326721 111.55052185 C23.14672904 111.54411004 25.21022747 111.54542774 27.27368164 111.55395508 C30.42335392 111.56246179 33.57121002 111.53369659 36.72070312 111.50195312 C38.72916613 111.50034083 40.73763232 111.50091918 42.74609375 111.50390625 C43.68376083 111.49267227 44.62142792 111.48143829 45.58750916 111.46986389 C51.19274227 111.52932325 54.64458249 112.10944573 59 116 C65.87802445 125.60052423 59.63906358 147.9646886 58.375 158.875 C58.10266024 161.27453519 57.83069346 163.67411273 57.55908203 166.07373047 C55.77082811 181.77088765 53.85431161 197.45092274 51.875 213.125 C42.48579463 257.0265204 42.48579463 257.0265204 47 299 C50.10070504 302.15607477 52.65860421 302.4574373 57 302.5 C71.64914649 302.12269835 83.58470547 293.19275847 93.421875 282.984375 C116.64075227 256.10676556 124.03074564 221.63022482 121.86376953 186.81103516 C121.48179519 182.49461685 120.79135225 178.25801467 120 174 C119.80664062 172.9493335 119.80664062 172.9493335 119.609375 171.87744141 C114.27699456 143.65408983 101.65701003 120.80919711 82 100 C81.30519531 99.25234375 80.61039063 98.5046875 79.89453125 97.734375 C52.16744626 68.84568171 11.3825046 52.82890278 -28.26135254 51.7124176 C-32.57037702 51.63011314 -36.87779333 51.61608644 -41.1875 51.625 C-42.08942078 51.62487915 -42.99134155 51.6247583 -43.92059326 51.62463379 C-57.35842709 51.65025747 -69.9814414 52.45486488 -83 56 C-84.33616039 56.31964944 -85.67338924 56.63487015 -87.01171875 56.9453125 C-114.95549351 63.78048043 -139.3282741 78.09960715 -160 98 C-160.84062988 98.79398193 -160.84062988 98.79398193 -161.69824219 99.60400391 C-188.65025837 125.14532803 -207.28861834 159.11552876 -213 196 C-213.16773926 196.94407715 -213.33547852 197.8881543 -213.50830078 198.86083984 C-215.06523677 208.32817112 -215.30773783 217.58096079 -215.26074219 227.15722656 C-215.25007182 229.73266452 -215.26067333 232.30739625 -215.2734375 234.8828125 C-215.28637694 248.86959277 -214.97892353 263.41067425 -210.8125 276.875 C-210.48886475 277.96687622 -210.48886475 277.96687622 -210.15869141 279.08081055 C-209.46018953 281.3943215 -208.73259371 283.69708033 -208 286 C-207.75652832 286.79132324 -207.51305664 287.58264648 -207.26220703 288.39794922 C-199.38671739 313.75875005 -185.93254124 336.46206935 -168 356 C-167.44860352 356.60199219 -166.89720703 357.20398438 -166.32910156 357.82421875 C-137.13328679 389.27334737 -94.68322781 406.34642364 -52.01330566 408.08074951 C-13.90653055 409.29439022 23.4581289 404.7471089 59.23046875 390.8828125 C59.93692032 390.61028152 60.64337189 390.33775055 61.37123108 390.05696106 C64.84633363 388.7102725 68.30603869 387.3357169 71.75024414 385.91186523 C80.62177092 382.33363012 89.60511068 379.69979746 98.96679688 383.06713867 C101.44455335 384.22410958 103.70140422 385.52233128 106 387 C106.9075 387.53625 107.815 388.0725 108.75 388.625 C115.05165148 395.27674323 118.41926383 403.61439644 118.28125 412.7578125 C117.39897384 419.79151408 113.80746202 426.83213301 109 432 C103.05736525 436.58072439 96.14493132 439.18259726 89.1875 441.8125 C88.06037598 442.24191895 86.93325195 442.67133789 85.77197266 443.11376953 C74.3010914 447.39811277 62.64304865 450.93584842 50.84814453 454.20849609 C48.51643579 454.85648167 46.19324975 455.52600007 43.87109375 456.20703125 C24.11196281 461.65109477 2.4853366 464.79992618 -18 465 C-19.16547363 465.01901367 -20.33094727 465.03802734 -21.53173828 465.05761719 C-91.57711948 466.10808265 -158.65145181 450.71589685 -210.34375 400.84375 C-218.06074906 393.28950702 -225.51912585 385.66008226 -232 377 C-232.48388184 376.3601416 -232.96776367 375.7202832 -233.46630859 375.06103516 C-249.79276417 353.38001777 -262.82887829 329.96393886 -271 304 C-271.36609375 302.85789062 -271.7321875 301.71578125 -272.109375 300.5390625 C-274.14869206 293.80931621 -275.71391347 287.00881404 -277.125 280.125 C-277.28371582 279.35953857 -277.44243164 278.59407715 -277.60595703 277.80541992 C-280.52772455 262.95540593 -281.3475393 248.48566186 -281.31567383 233.38378906 C-281.31251876 230.26852201 -281.3360476 227.15421274 -281.36132812 224.0390625 C-281.4018687 211.08939162 -280.34937091 198.72987647 -278 186 C-277.85517685 185.19068024 -277.7103537 184.38136047 -277.56114197 183.54751587 C-269.91349757 140.96333426 -249.01506012 102.86030675 -219 72 C-218.38753418 71.36175293 -217.77506836 70.72350586 -217.14404297 70.06591797 C-208.31449481 60.88450737 -199.27383878 52.53043982 -189 45 C-188.43071777 44.57525391 -187.86143555 44.15050781 -187.27490234 43.71289062 C-156.61432376 20.85792311 -121.65066027 6.47823499 -84 0 C-83.29520508 -0.12455566 -82.59041016 -0.24911133 -81.86425781 -0.37744141 C-55.57723427 -4.8923882 -26.27630222 -4.36473694 0 0 Z " fill="#347BBD" transform="translate(1258,342)"/>
<path d="M0 0 C0 167.31 0 334.62 0 507 C-2.94195552 505.52902224 -5.07881562 504.30424716 -7.6171875 502.34765625 C-8.299021 501.82437744 -8.98085449 501.30109863 -9.68334961 500.76196289 C-10.40659424 500.20114014 -11.12983887 499.64031738 -11.875 499.0625 C-12.63240479 498.47911865 -13.38980957 497.8957373 -14.17016602 497.29467773 C-19.92592317 492.85355557 -25.64714025 488.36900859 -31.35546875 483.8671875 C-37.77093613 478.81193364 -44.23088651 473.81343846 -50.68115234 468.80273438 C-52.97248427 467.02139147 -55.26193773 465.23766377 -57.55078125 463.453125 C-65.62880989 457.15721979 -73.73359205 450.8995193 -81.87817383 444.68994141 C-86.94804369 440.81900726 -91.97455605 436.89648185 -96.98242188 432.94580078 C-101.24188819 429.58775073 -105.53225895 426.27192414 -109.83618164 422.97094727 C-116.80743149 417.6200476 -123.73560362 412.21368779 -130.66943359 406.81445312 C-134.44517264 403.87486664 -138.22263307 400.93749416 -142 398 C-146.55949384 394.45427972 -151.1185484 390.90800104 -155.67578125 387.359375 C-164.95499857 380.13518191 -174.25331938 372.93753274 -183.58691406 365.78369141 C-190.22871726 360.69244882 -196.84082853 355.56680514 -203.41552734 350.38916016 C-214.41856871 341.72860442 -225.48669881 333.15162515 -236.59375 324.625 C-241.52854536 320.82900357 -246.43545131 316.99701961 -251.34765625 313.171875 C-255.72144077 309.76757571 -260.10358707 306.37502406 -264.5 303 C-271.91613129 297.30530446 -279.29198584 291.55912408 -286.66943359 285.81445312 C-290.44517264 282.87486664 -294.22263307 279.93749416 -298 277 C-302.55949384 273.45427972 -307.1185484 269.90800104 -311.67578125 266.359375 C-313.22133063 265.15621977 -314.76690329 263.95309444 -316.3125 262.75 C-317.05991455 262.16798828 -317.8073291 261.58597656 -318.57739258 260.98632812 C-322.54678725 257.89809613 -326.52751065 254.82577947 -330.5234375 251.77197266 C-335.48100388 247.9825183 -340.32393685 244.13233488 -345 240 C-342.24418359 237.10655142 -339.42867511 234.76174805 -336.140625 232.49609375 C-335.19807861 231.84366699 -334.25553223 231.19124023 -333.28442383 230.51904297 C-332.28306396 229.83213379 -331.2817041 229.14522461 -330.25 228.4375 C-328.69671997 227.36459717 -328.69671997 227.36459717 -327.11206055 226.27001953 C-324.0777317 224.17557705 -321.03963332 222.08673446 -318 220 C-317.23445801 219.47390137 -316.46891602 218.94780273 -315.68017578 218.40576172 C-313.09192633 216.62707184 -310.50342207 214.8487599 -307.91333008 213.07275391 C-301.88377612 208.9335176 -295.8950282 204.73670557 -289.90673828 200.53808594 C-280.59616776 194.0113425 -271.25978739 187.52187387 -261.92333984 181.03222656 C-258.07074517 178.35400725 -254.21903399 175.67451918 -250.36743164 172.99487305 C-248.45655446 171.66547522 -246.54558447 170.33621079 -244.63452148 169.00708008 C-239.79122516 165.6384935 -234.94917588 162.26813832 -230.109375 158.89453125 C-221.13869174 152.64381758 -212.15877802 146.40926753 -203.125 140.25 C-195.82585514 135.27203332 -188.59168005 130.20913432 -181.3828125 125.1015625 C-167.35208854 115.16180134 -153.22332823 105.36540666 -139.03369141 95.65429688 C-130.92457452 90.10311614 -122.85478358 84.50262104 -114.8347168 78.82348633 C-105.92871062 72.52318938 -96.96254391 66.30941112 -88.00244141 60.08642578 C-84.99380445 57.99569466 -81.9868537 55.90256163 -78.98046875 53.80859375 C-69.98149724 47.54143969 -60.97621822 41.28495373 -51.93066406 35.08520508 C-45.66815657 30.78596954 -39.44873875 26.42566095 -33.22998047 22.06347656 C-27.47679722 18.02877662 -21.70150408 14.02837749 -15.9140625 10.04296875 C-11.93241066 7.25154259 -8.03245753 4.35380778 -4.14453125 1.43359375 C-2 0 -2 0 0 0 Z " fill="#FEFEFE" transform="translate(1726,756)"/>
<path d="M0 0 C1.73224997 1.09553688 3.46359945 2.19249768 5.19458008 3.29003906 C6.15882401 3.90075256 7.12306793 4.51146606 8.11653137 5.14068604 C12.38910602 7.89572128 16.53954393 10.81205589 20.6875 13.75 C22.44493302 14.98751825 24.20274978 16.22449171 25.9609375 17.4609375 C26.8178418 18.06389648 27.67474609 18.66685547 28.55761719 19.28808594 C31.96041309 21.67317239 35.38366331 24.02756908 38.8125 26.375 C45.27311433 30.80041761 51.70146878 35.2709526 58.125 39.75 C65.78199756 45.08726989 73.46732301 50.37955493 81.1875 55.625 C89.1312234 61.02276713 97.02163063 66.49075202 104.88134766 72.01000977 C114.04082786 78.44026051 123.26648713 84.77196999 132.51171875 91.078125 C141.62253808 97.29555406 150.69214499 103.56648273 159.72070312 109.90283203 C166.80447086 114.87173176 173.92606081 119.78335993 181.06445312 124.67333984 C185.04738335 127.40331498 189.02480381 130.14131538 193.00317383 132.87792969 C196.32155186 135.16009913 199.64144493 137.43999078 202.96484375 139.71484375 C209.84499063 144.42801524 216.69412821 149.1800785 223.5 154 C235.29762263 162.35241747 247.24216155 170.48586333 259.1875 178.625 C269.16702694 185.42529851 279.12449904 192.25092945 288.97973633 199.23071289 C295.65753968 203.95996864 302.36424701 208.63997653 309.125 213.25 C316.57506472 218.33600441 324.01617928 223.43461806 331.4375 228.5625 C332.4270166 229.24151367 333.4165332 229.92052734 334.43603516 230.62011719 C335.36335449 231.26239258 336.29067383 231.90466797 337.24609375 232.56640625 C338.06779053 233.13302979 338.8894873 233.69965332 339.73608398 234.28344727 C342.03706958 236.028107 344.00910695 237.9126307 346 240 C338.43046099 246.13393679 330.82250522 252.19064658 323 258 C317.04414971 262.42509038 311.21410847 266.97952508 305.43798828 271.63623047 C299.36834434 276.52562132 293.19332318 281.26888291 287 286 C276.62972437 293.9527464 266.31086875 301.97044842 256 310 C246.81353937 317.15392285 237.62163273 324.29932343 228.38671875 331.390625 C221.23246227 336.89422945 214.12151142 342.45414885 207 348 C189.79615606 361.39743098 189.79615606 361.39743098 182.5 367 C177.34081772 370.96209585 172.19783521 374.94454336 167.0625 378.9375 C166.29180176 379.53675293 165.52110352 380.13600586 164.72705078 380.75341797 C160.66272536 383.91704281 156.60922633 387.09359445 152.56835938 390.28710938 C147.12578426 394.58718314 141.62675262 398.79591421 136.0625 402.9375 C130.08451838 407.38837576 124.22932892 411.96749417 118.42724609 416.64477539 C113.50995612 420.60588973 108.52685153 424.46777165 103.51171875 428.3046875 C99.3225474 431.51253482 95.16233945 434.75746421 91 438 C85.84451434 442.01476809 80.68315684 446.02101091 75.5 450 C67.30301626 456.29429617 59.15396006 462.65013322 51 469 C41.83617471 476.13629566 32.67070279 483.26912786 23.453125 490.3359375 C20.7020179 492.45153554 17.9670188 494.58717589 15.234375 496.7265625 C14.41001953 497.37109375 13.58566406 498.015625 12.73632812 498.6796875 C11.09801664 499.96150858 9.46125743 501.24531648 7.82617188 502.53125 C7.08431641 503.11132812 6.34246094 503.69140625 5.578125 504.2890625 C4.57894043 505.07337646 4.57894043 505.07337646 3.55957031 505.87353516 C2 507 2 507 1 507 C0.87181823 450.93173423 0.74435271 394.86346686 0.61781773 338.79519735 C0.60280151 332.14170382 0.58777966 325.4882103 0.57275391 318.8347168 C0.57125906 318.17274205 0.56976422 317.51076731 0.56822408 316.82873273 C0.51859753 294.85355167 0.46850038 272.87837171 0.41819459 250.90319218 C0.36797602 228.96145761 0.31827528 207.0197219 0.26903296 185.07798511 C0.24143549 172.78727151 0.21361344 160.49655852 0.18519592 148.20584679 C-0.04479308 48.63875566 -0.04479308 48.63875566 0 0 Z " fill="#FEFEFE" transform="translate(690,757)"/>
<path d="M0 0 C9.94669916 8.65792419 16.43356514 18.2837322 17.57495117 31.66601562 C18.61402486 57.64961958 13.03429904 79.45612282 -4.6484375 99.046875 C-10.59672788 104.83765614 -16.72220171 108.5855702 -24.6484375 111.046875 C-25.545625 111.32917969 -25.545625 111.32917969 -26.4609375 111.6171875 C-34.09215167 113.116176 -43.1803746 113.51145583 -50.1484375 109.734375 C-59.5922802 102.94115706 -64.24431014 92.85240047 -67.6484375 82.046875 C-67.968125 81.11101562 -68.2878125 80.17515625 -68.6171875 79.2109375 C-70.80036925 71.67087462 -70.9259201 64.29382875 -70.9609375 56.484375 C-70.96649658 55.4437793 -70.97205566 54.40318359 -70.9777832 53.33105469 C-70.80478139 34.55222542 -65.91040433 16.54425582 -52.7109375 2.671875 C-37.47659885 -11.73579411 -16.85645623 -12.84824351 0 0 Z " fill="#FDFEFE" transform="translate(1233.6484375,526.953125)"/>
<path d="M0 0 C0.66 0 1.32 0 2 0 C2 36.96 2 73.92 2 112 C-2.54578646 109.40240774 -6.69523141 106.91990959 -10.9375 103.9375 C-12.08047974 103.13766428 -13.22372063 102.33820165 -14.3671875 101.5390625 C-14.96112305 101.12301758 -15.55505859 100.70697266 -16.16699219 100.27832031 C-19.28543716 98.10354968 -22.42572034 95.96069508 -25.5625 93.8125 C-31.73422892 89.57832813 -37.87250657 85.29789378 -44 81 C-55.58212123 72.87789069 -67.18352785 64.7791775 -79 57 C-77.73261516 53.19784548 -76.36514726 52.64680828 -73.0390625 50.48828125 C-72.00910156 49.81216797 -70.97914063 49.13605469 -69.91796875 48.43945312 C-68.83128906 47.73755859 -67.74460937 47.03566406 -66.625 46.3125 C-59.47043429 41.65279207 -52.42400015 36.92140173 -45.54638672 31.86010742 C-41.83960886 29.15234707 -38.05022332 26.57409916 -34.25 24 C-26.59750142 18.78931985 -18.97693292 13.53418383 -11.375 8.25 C-10.36083008 7.54617188 -9.34666016 6.84234375 -8.30175781 6.1171875 C-7.36428711 5.46492187 -6.42681641 4.81265625 -5.4609375 4.140625 C-4.62353027 3.55829102 -3.78612305 2.97595703 -2.92333984 2.37597656 C-1.08700422 1.14155922 -1.08700422 1.14155922 0 0 Z " fill="#FDFDFD" transform="translate(797,633)"/>
<path d="M0 0 C11.346243 7.22033646 22.47707471 14.58929782 33.43994141 22.3659668 C38.26520055 25.78604453 43.11860302 29.16060643 48 32.5 C54.45824052 36.91879614 60.86261697 41.4097925 67.2421875 45.94140625 C67.90734375 46.41320312 68.5725 46.885 69.2578125 47.37109375 C70.20382324 48.04374268 70.20382324 48.04374268 71.16894531 48.72998047 C72.91657888 49.94213911 74.69618295 51.08399567 76.4921875 52.22265625 C77.31976562 52.80917969 78.14734375 53.39570312 79 54 C79 54.66 79 55.32 79 56 C76.97265625 57.5234375 76.97265625 57.5234375 74.0625 59.375 C68.87463739 62.74619627 63.7916858 66.22658515 58.75 69.8125 C53.2577322 73.70952866 47.74482423 77.57129227 42.1875 81.375 C36.03557079 85.58697207 29.91734646 89.84507762 23.8125 94.125 C22.12500981 95.30730566 20.43751003 96.48959764 18.75 97.671875 C16.45426282 99.28036501 14.15852772 100.88885671 11.86328125 102.49804688 C10.01469494 103.79278365 8.16401028 105.08444964 6.3125 106.375 C4.79076172 107.43847656 4.79076172 107.43847656 3.23828125 108.5234375 C1 110 1 110 0 110 C0 73.7 0 37.4 0 0 Z " fill="#FDFDFD" transform="translate(1617,634)"/>
<path d="M0 0 C0.66 0.33 1.32 0.66 2 1 C0.125 6.875 0.125 6.875 -1 8 C-2.670625 8.12375 -2.670625 8.12375 -4.375 8.25 C-8.14184036 8.60477209 -8.14184036 8.60477209 -9.8125 11.5 C-10.204375 12.325 -10.59625 13.15 -11 14 C-11.99 14.495 -11.99 14.495 -13 15 C-13.66 14.67 -14.32 14.34 -15 14 C-15.33 14.66 -15.66 15.32 -16 16 C-16.66 15.34 -17.32 14.68 -18 14 C-17.49025635 13.61142822 -16.9805127 13.22285645 -16.45532227 12.82250977 C-14.15712702 11.06994243 -11.8598031 9.31623658 -9.5625 7.5625 C-8.35883789 6.64500977 -8.35883789 6.64500977 -7.13085938 5.70898438 C-5.98520508 4.8340332 -5.98520508 4.8340332 -4.81640625 3.94140625 C-4.10943604 3.40201416 -3.40246582 2.86262207 -2.67407227 2.30688477 C-1.06449844 1.10524969 -1.06449844 1.10524969 0 0 Z " fill="#223846" transform="translate(1126,926)"/>
<path d="M0 0 C0.33 0 0.66 0 1 0 C0.98839844 1.12019531 0.97679687 2.24039063 0.96484375 3.39453125 C0.95546378 4.86718583 0.9463638 6.33984222 0.9375 7.8125 C0.92912109 8.55048828 0.92074219 9.28847656 0.91210938 10.04882812 C0.89740172 13.29922068 0.96468298 15.89404895 2 19 C1.67 19.99 1.34 20.98 1 22 C0.01 22 -0.98 22 -2 22 C-2.33 24.64 -2.66 27.28 -3 30 C-5.09577371 27.12493137 -4.97664704 25.79003763 -4.57421875 22.171875 C-4.29189742 20.69532118 -3.99584172 19.22134017 -3.6875 17.75 C-3.39772971 16.28685495 -3.10996049 14.82331213 -2.82421875 13.359375 C-2.68161621 12.64201172 -2.53901367 11.92464844 -2.39208984 11.18554688 C-1.99393556 8.96619623 -1.71130861 6.75566364 -1.45703125 4.515625 C-1 1 -1 1 0 0 Z " fill="#4585C0" transform="translate(1381,552)"/>
<path d="M0 0 C1.35432675 1.31200404 2.68733482 2.64631404 4 4 C4.99 4.33 5.98 4.66 7 5 C7 5.99 7 6.98 7 8 C7.99 8.33 8.98 8.66 10 9 C10 10.98 10 12.96 10 15 C9.319375 14.29875 8.63875 13.5975 7.9375 12.875 C5.3031591 10.23315386 2.50802531 7.8234601 -0.3515625 5.4296875 C-1.9783852 4.01874648 -3.49610471 2.54035336 -5 1 C-3 0 -3 0 0 0 Z " fill="#4082BE" transform="translate(1233,522)"/>
<path d="M0 0 C0.33 0.99 0.66 1.98 1 3 C-2.56045177 4.18681726 -5.43808337 4.09689832 -9.1875 4.0625 C-10.45980469 4.05347656 -11.73210937 4.04445313 -13.04296875 4.03515625 C-14.50669922 4.01775391 -14.50669922 4.01775391 -16 4 C-16.33 3.34 -16.66 2.68 -17 2 C-14.91952703 1.4678559 -12.83547707 0.94968214 -10.75 0.4375 C-9.58984375 0.14746094 -8.4296875 -0.14257812 -7.234375 -0.44140625 C-2.61528608 -1.23914745 -2.61528608 -1.23914745 0 0 Z " fill="#357DBC" transform="translate(1191,458)"/>
<path d="M0 0 C0.66 0.33 1.32 0.66 2 1 C1.72285156 1.556875 1.44570312 2.11375 1.16015625 2.6875 C-1.31316236 7.89819259 -2.58161204 12.24716553 -3 18 C-4.65 17.67 -6.3 17.34 -8 17 C-7.49159115 12.17369625 -6.13041456 9.1398908 -3.4375 5.125 C-2.79683594 4.15820312 -2.15617187 3.19140625 -1.49609375 2.1953125 C-1.00238281 1.47085937 -0.50867187 0.74640625 0 0 Z " fill="#3E81BE" transform="translate(1120,502)"/>
<path d="M0 0 C0.33 0.66 0.66 1.32 1 2 C2.98 1.67 4.96 1.34 7 1 C7.45375 1.639375 7.9075 2.27875 8.375 2.9375 C9.83921726 5.09702406 9.83921726 5.09702406 12 6 C12 6.66 12 7.32 12 8 C12.66 8 13.32 8 14 8 C13.67 9.32 13.34 10.64 13 12 C11.2267539 10.73253547 9.45649025 9.46089765 7.6875 8.1875 C6.70136719 7.47980469 5.71523438 6.77210938 4.69921875 6.04296875 C2.59942813 4.45369163 0.77965031 2.92542371 -1 1 C-0.67 0.67 -0.34 0.34 0 0 Z " fill="#253A47" transform="translate(702,763)"/>
<path d="M0 0 C1.32 0.33 2.64 0.66 4 1 C3.01 2.485 3.01 2.485 2 4 C1.34 4 0.68 4 0 4 C0 4.66 0 5.32 0 6 C0.66 6.33 1.32 6.66 2 7 C1.2575 7.2475 0.515 7.495 -0.25 7.75 C-3.20124062 9.09147301 -4.84814974 10.60905526 -7 13 C-7.66 12.67 -8.32 12.34 -9 12 C-6.03 8.04 -3.06 4.08 0 0 Z " fill="#4182BD" transform="translate(1364,608)"/>
<path d="M0 0 C0.721875 0.185625 1.44375 0.37125 2.1875 0.5625 C5.12826973 1.01995307 7.14103058 0.73516357 10 0 C9.95875 0.78375 9.9175 1.5675 9.875 2.375 C9.71271266 5.16116119 9.71271266 5.16116119 12 7 C11.34 7.66 10.68 8.32 10 9 C8.51726301 7.87970983 7.03891114 6.75361382 5.5625 5.625 C4.32693359 4.68527344 4.32693359 4.68527344 3.06640625 3.7265625 C1 2 1 2 0 0 Z " fill="#243A47" transform="translate(1500,1178)"/>
<path d="M0 0 C3 1 3 1 4.25 3.3125 C5.04631835 6.16597407 4.8214856 7.24802325 4 10 C2.82512964 9.24172908 1.66027408 8.46792245 0.5 7.6875 C-0.47453125 7.04361328 -0.47453125 7.04361328 -1.46875 6.38671875 C-2.22671875 5.70029297 -2.22671875 5.70029297 -3 5 C-3 4.01 -3 3.02 -3 2 C-2.01 2 -1.02 2 0 2 C0 1.34 0 0.68 0 0 Z " fill="#243A4A" transform="translate(1650,650)"/>
<path d="M0 0 C0.99 0.495 0.99 0.495 2 1 C2.33 1.99 2.66 2.98 3 4 C3.99 2.68 4.98 1.36 6 0 C6.33 3.63 6.66 7.26 7 11 C5.35 11.33 3.7 11.66 2 12 C1.34 8.04 0.68 4.08 0 0 Z " fill="#4286C2" transform="translate(1376,504)"/>
<path d="M0 0 C0.33 0 0.66 0 1 0 C1 6.6 1 13.2 1 20 C1.66 20 2.32 20 3 20 C3.33 21.98 3.66 23.96 4 26 C1.525 25.01 1.525 25.01 -1 24 C-0.67 16.08 -0.34 8.16 0 0 Z " fill="#669DCE" transform="translate(1251,560)"/>
<path d="M0 0 C0.66 0.33 1.32 0.66 2 1 C1.67 2.32 1.34 3.64 1 5 C0.360625 5.103125 -0.27875 5.20625 -0.9375 5.3125 C-1.618125 5.539375 -2.29875 5.76625 -3 6 C-3.33 6.99 -3.66 7.98 -4 9 C-5.65 8.67 -7.3 8.34 -9 8 C-6.14723863 5.06799526 -3.34920216 2.35684596 0 0 Z " fill="#263C48" transform="translate(943,1068)"/>
<path d="M0 0 C-1.3372549 5.59215686 -1.3372549 5.59215686 -4.4375 7.5 C-7 8 -7 8 -10 6 C-8.71283353 4.99421411 -7.42011342 3.99553202 -6.125 3 C-5.40570312 2.443125 -4.68640625 1.88625 -3.9453125 1.3125 C-2 0 -2 0 0 0 Z " fill="#233A47" transform="translate(821,199)"/>
<path d="M0 0 C0.66 0 1.32 0 2 0 C2 0.66 2 1.32 2 2 C3.32 1.67 4.64 1.34 6 1 C3.66666667 3.33333333 1.33333333 5.66666667 -1 8 C-0.01 8.33 0.98 8.66 2 9 C1.01 9.33 0.02 9.66 -1 10 C-3.1875 8.5625 -3.1875 8.5625 -5 7 C-4.34 7 -3.68 7 -3 7 C-2.690625 6.21625 -2.38125 5.4325 -2.0625 4.625 C-1 2 -1 2 0 0 Z " fill="#263A47" transform="translate(719,682)"/>
<path d="M0 0 C-2.80804268 2.96404505 -5.18315774 5.44499019 -9 7 C-9.33 5.35 -9.66 3.7 -10 2 C-3.375 -1.125 -3.375 -1.125 0 0 Z " fill="#3E81BF" transform="translate(1379,675)"/>
<path d="M0 0 C1.38938077 1.96147874 2.7260411 3.96166576 4 6 C3.2575 5.979375 2.515 5.95875 1.75 5.9375 C-0.70462279 5.99328688 -2.66109261 6.3069904 -5 7 C-5.33 6.01 -5.66 5.02 -6 4 C-2.25 0 -2.25 0 0 0 Z " fill="#EBF3F7" transform="translate(1254,673)"/>
<path d="M0 0 C0.99 0.33 1.98 0.66 3 1 C2.67 1.99 2.34 2.98 2 4 C1.01 4 0.02 4 -1 4 C-1 4.66 -1 5.32 -1 6 C-2.65 6.66 -4.3 7.32 -6 8 C-6.66 7.34 -7.32 6.68 -8 6 C-6.7391988 4.96680187 -5.46596742 3.94875621 -4.1875 2.9375 C-3.47980469 2.36902344 -2.77210938 1.80054688 -2.04296875 1.21484375 C-1.36878906 0.81394531 -0.69460938 0.41304687 0 0 Z M-10 7 C-8 8 -8 8 -8 8 Z " fill="#2A3E4B" transform="translate(777,560)"/>
<path d="M0 0 C1.98 1.65 3.96 3.3 6 5 C5.34 5.66 4.68 6.32 4 7 C1.5 6.875 1.5 6.875 -1 6 C-2.3125 3.9375 -2.3125 3.9375 -3 2 C-2.01 1.34 -1.02 0.68 0 0 Z " fill="#3F84C1" transform="translate(1379,401)"/>
<path d="M0 0 C0.66 0 1.32 0 2 0 C2 0.66 2 1.32 2 2 C2.66 2 3.32 2 4 2 C3.67 5.96 3.34 9.92 3 14 C-0.26566506 9.10150241 -0.09311493 5.68001091 0 0 Z " fill="#3B82C0" transform="translate(1314,480)"/>
<path d="M0 0 C6.625 -0.25 6.625 -0.25 10 2 C2.08 3.485 2.08 3.485 -6 5 C-5.67 4.01 -5.34 3.02 -5 2 C-3.35 2 -1.7 2 0 2 C0 1.34 0 0.68 0 0 Z " fill="#4284C0" transform="translate(1174,394)"/>
<path d="M0 0 C5.78461538 4.30769231 5.78461538 4.30769231 6.875 7.8125 C6.936875 8.8953125 6.936875 8.8953125 7 10 C2.77728219 7.46636932 0.21689838 5.43379675 -2 1 C-1.34 0.67 -0.68 0.34 0 0 Z " fill="#293E4B" transform="translate(629,1357)"/>
<path d="M0 0 C-2.12232979 1.17176518 -4.24757791 2.33754785 -6.375 3.5 C-6.97828125 3.83386719 -7.5815625 4.16773438 -8.203125 4.51171875 C-12.7734375 7 -12.7734375 7 -15 7 C-14.67 5.68 -14.34 4.36 -14 3 C-12.5459375 2.814375 -12.5459375 2.814375 -11.0625 2.625 C-9.5465625 2.315625 -9.5465625 2.315625 -8 2 C-7.67 1.34 -7.34 0.68 -7 0 C-3.86650268 -1.04449911 -3.01031744 -0.93423645 0 0 Z " fill="#4083BE" transform="translate(1234,690)"/>
<path d="M0 0 C0.78375 0.185625 1.5675 0.37125 2.375 0.5625 C4.97089775 1.25962266 4.97089775 1.25962266 7 0 C7.33 0.99 7.66 1.98 8 3 C5.69 4.65 3.38 6.3 1 8 C0.67 5.36 0.34 2.72 0 0 Z " fill="#273D4B" transform="translate(825,1242)"/>
<path d="M0 0 C4.875 1.75 4.875 1.75 6 4 C5.67 4.66 5.34 5.32 5 6 C2.625 6.75 2.625 6.75 0 7 C-0.99 6.34 -1.98 5.68 -3 5 C-2.505 4.54625 -2.01 4.0925 -1.5 3.625 C0.22609337 2.12364481 0.22609337 2.12364481 0 0 Z " fill="#233947" transform="translate(1739,632)"/>
<path d="M0 0 C0.99 0 1.98 0 3 0 C4.42857143 8.42857143 4.42857143 8.42857143 2 13 C1.67 13 1.34 13 1 13 C0.67 8.71 0.34 4.42 0 0 Z " fill="#4789C3" transform="translate(1099,600)"/>
<path d="M0 0 C0.98484375 0.01804687 1.9696875 0.03609375 2.984375 0.0546875 C4.10585937 0.08949219 4.10585937 0.08949219 5.25 0.125 C0.39320388 3.85558252 0.39320388 3.85558252 -2.75 4.125 C-5.104248 3.536438 -7.44342986 2.87907101 -9.75 2.125 C-6.40060119 0.09941119 -3.88037449 -0.09238987 0 0 Z " fill="#3E82C1" transform="translate(1159.75,345.875)"/>
<path d="M0 0 C0.66 0.33 1.32 0.66 2 1 C-1.75 6.875 -1.75 6.875 -4 8 C-4.66 7.67 -5.32 7.34 -6 7 C-6.33 7.66 -6.66 8.32 -7 9 C-7.66 8.34 -8.32 7.68 -9 7 C-6.03 4.69 -3.06 2.38 0 0 Z " fill="#2A3F4B" transform="translate(1117,933)"/>
<path d="M0 0 C2.97 1.65 5.94 3.3 9 5 C8.01 6.32 7.02 7.64 6 9 C5.67 7.68 5.34 6.36 5 5 C2.03 4.505 2.03 4.505 -1 4 C-0.67 2.68 -0.34 1.36 0 0 Z " fill="#263C49" transform="translate(892,810)"/>
<path d="M0 0 C2.97 0 5.94 0 9 0 C6.19195732 2.96404505 3.81684226 5.44499019 0 7 C0 4.69 0 2.38 0 0 Z " fill="#263B47" transform="translate(1682,779)"/>
<path d="M0 0 C3.36591866 1.44253657 5.51047079 3.33264727 8 6 C5.03 5.505 5.03 5.505 2 5 C1.67 5.99 1.34 6.98 1 8 C0.17361624 5.10765685 0 3.11257569 0 0 Z " fill="#243A47" transform="translate(1434,1038)"/>
<path d="M0 0 C0.99 0.33 1.98 0.66 3 1 C3.33 2.65 3.66 4.3 4 6 C3.34 6 2.68 6 2 6 C1.67 6.66 1.34 7.32 1 8 C-0.32 6.68 -1.64 5.36 -3 4 C-2.34 4 -1.68 4 -1 4 C-0.67 2.68 -0.34 1.36 0 0 Z " fill="#243A49" transform="translate(730,778)"/>
<path d="M0 0 C0.33 1.32 0.66 2.64 1 4 C0.01 4.495 0.01 4.495 -1 5 C-1.72693904 6.97888961 -2.39816251 8.97954558 -3 11 C-4.65 11.33 -6.3 11.66 -8 12 C-6.59023295 8.96147295 -4.91129772 6.4060405 -2.875 3.75 C-2.06675781 2.69039062 -2.06675781 2.69039062 -1.2421875 1.609375 C-0.83226562 1.07828125 -0.42234375 0.5471875 0 0 Z " fill="#EAF3F7" transform="translate(1407,645)"/>
<path d="M0 0 C0.66 0 1.32 0 2 0 C2 0.66 2 1.32 2 2 C5.3 1.34 8.6 0.68 12 0 C11.34 0.66 10.68 1.32 10 2 C10.66 2.66 11.32 3.32 12 4 C8.36804504 5.21065165 6.93468371 4.62784815 3.3125 3.5625 C1.82169922 3.13130859 1.82169922 3.13130859 0.30078125 2.69140625 C-0.45847656 2.46324219 -1.21773437 2.23507812 -2 2 C-1.34 1.34 -0.68 0.68 0 0 Z " fill="#4C88C1" transform="translate(1260,395)"/>
<path d="M0 0 C0.33 0.66 0.66 1.32 1 2 C4.02934491 2.65772428 4.02934491 2.65772428 7 3 C7.33 4.32 7.66 5.64 8 7 C3.76570244 5.68938409 -0.07407404 4.05643741 -4 2 C-2.68 1.34 -1.36 0.68 0 0 Z " fill="#4184C0" transform="translate(1103,778)"/>
<path d="M0 0 C2.3431213 0.25561323 4.67843403 0.59270772 7 1 C7.33 1.66 7.66 2.32 8 3 C8.99 3.33 9.98 3.66 11 4 C11 4.66 11 5.32 11 6 C11.99 6.33 12.98 6.66 14 7 C13.01 7.495 13.01 7.495 12 8 C9.1796875 6.6015625 9.1796875 6.6015625 5.875 4.625 C4.77929688 3.97789062 3.68359375 3.33078125 2.5546875 2.6640625 C1.71164062 2.11492188 0.86859375 1.56578125 0 1 C0 0.67 0 0.34 0 0 Z " fill="#4484BF" transform="translate(1085,771)"/>
<path d="M0 0 C3 1.6875 3 1.6875 6 4 C6.375 6.75 6.375 6.75 6 9 C5.01 9.33 4.02 9.66 3 10 C2.49596232 8.70990357 1.99690074 7.41786211 1.5 6.125 C1.2215625 5.40570312 0.943125 4.68640625 0.65625 3.9453125 C0 2 0 2 0 0 Z " fill="#243B49" transform="translate(793,741)"/>
<path d="M0 0 C0 2.62113708 -0.31292445 4.50935112 -1 7 C-1.556875 7.12375 -2.11375 7.2475 -2.6875 7.375 C-5.22114364 8.05976855 -7.57921032 8.99133763 -10 10 C-6.66666667 6.66666667 -3.33333333 3.33333333 0 0 Z " fill="#E8F2F9" transform="translate(1247,678)"/>
<path d="M0 0 C0.66 0.99 1.32 1.98 2 3 C1.34 3 0.68 3 0 3 C-0.66 4.32 -1.32 5.64 -2 7 C-3.65 6.67 -5.3 6.34 -7 6 C-2.25 1.125 -2.25 1.125 0 0 Z " fill="#F2F9FC" transform="translate(1116,424)"/>
<path d="M0 0 C1.27875 0.103125 2.5575 0.20625 3.875 0.3125 C4.95394531 0.39951172 4.95394531 0.39951172 6.0546875 0.48828125 C8 1 8 1 10 4 C9.34 4 8.68 4 8 4 C7.67 4.99 7.34 5.98 7 7 C5.83040013 6.02433888 4.66438823 5.044375 3.5 4.0625 C2.8503125 3.51722656 2.200625 2.97195313 1.53125 2.41015625 C1.0259375 1.94480469 0.520625 1.47945312 0 1 C0 0.67 0 0.34 0 0 Z " fill="#4283BE" transform="translate(1055,749)"/>
<path d="M0 0 C0 3.10551666 -0.5393715 4.35261084 -2 7 C-3.32 7 -4.64 7 -6 7 C-6 5.68 -6 4.36 -6 3 C-4.02 2.01 -2.04 1.02 0 0 Z " fill="#4284BF" transform="translate(1334,639)"/>
<path d="M0 0 C0 0.99 0 1.98 0 3 C-0.66 3 -1.32 3 -2 3 C-2 3.66 -2 4.32 -2 5 C-2.66 5 -3.32 5 -4 5 C-4 5.66 -4 6.32 -4 7 C-5.65 7.33 -7.3 7.66 -9 8 C-9 7.01 -9 6.02 -9 5 C-6.03 3.35 -3.06 1.7 0 0 Z " fill="#F2F7F8" transform="translate(1236,688)"/>
<path d="M0 0 C1.32 0.66 2.64 1.32 4 2 C2.87926138 2.83905565 1.75325453 3.67107831 0.625 4.5 C-0.00148438 4.9640625 -0.62796875 5.428125 -1.2734375 5.90625 C-3 7 -3 7 -5 7 C-4.60196439 4.11424181 -4.20990931 3.17810487 -1.9375 1.25 C-1.298125 0.8375 -0.65875 0.425 0 0 Z " fill="#2A3E4A" transform="translate(743,667)"/>
<path d="M0 0 C0.66 0 1.32 0 2 0 C1.34 3.96 0.68 7.92 0 12 C-0.33 12 -0.66 12 -1 12 C-1 10.35 -1 8.7 -1 7 C-1.66 7 -2.32 7 -3 7 C-2.67 5.35 -2.34 3.7 -2 2 C-1.34 2 -0.68 2 0 2 C0 1.34 0 0.68 0 0 Z " fill="#4386C1" transform="translate(1045,526)"/>
<path d="M0 0 C0.33 0.99 0.66 1.98 1 3 C-1.97 5.475 -1.97 5.475 -5 8 C-5.66 7.01 -6.32 6.02 -7 5 C-4.69 3.35 -2.38 1.7 0 0 Z " fill="#253A49" transform="translate(776,1198)"/>
<path d="M0 0 C0.33 0 0.66 0 1 0 C1.16682272 4.92127034 1.24828052 8.50343896 -1 13 C-1.66 12.67 -2.32 12.34 -3 12 C-3 10.35 -3 8.7 -3 7 C-2.01 6.67 -1.02 6.34 0 6 C0 4.02 0 2.04 0 0 Z " fill="#4B89C1" transform="translate(1375,749)"/>
<path d="M0 0 C0 0.66 0 1.32 0 2 C-0.66 2 -1.32 2 -2 2 C-1.67 2.99 -1.34 3.98 -1 5 C-6.75 3.25 -6.75 3.25 -9 1 C-2.25 -1.125 -2.25 -1.125 0 0 Z " fill="#4384BE" transform="translate(1166,692)"/>
<path d="M0 0 C-1.42859407 1.03325986 -2.86822383 2.05127634 -4.3125 3.0625 C-5.51326172 3.91521484 -5.51326172 3.91521484 -6.73828125 4.78515625 C-7.48464844 5.18605469 -8.23101563 5.58695313 -9 6 C-9.99 5.67 -10.98 5.34 -12 5 C-11.67 4.34 -11.34 3.68 -11 3 C-10.01 3 -9.02 3 -8 3 C-7.67 2.34 -7.34 1.68 -7 1 C-4.01793274 -0.8886426 -3.49368922 -1.16456307 0 0 Z " fill="#30424E" transform="translate(772,652)"/>
<path d="M0 0 C0 0.66 0 1.32 0 2 C0.66 2.66 1.32 3.32 2 4 C-1.63 4 -5.26 4 -9 4 C-9.33 3.34 -9.66 2.68 -10 2 C-3.375 0 -3.375 0 0 0 Z " fill="#488AC5" transform="translate(1184,458)"/>
<path d="M0 0 C0.66 0.33 1.32 0.66 2 1 C1.67 2.65 1.34 4.3 1 6 C-0.1446875 6.2165625 -0.1446875 6.2165625 -1.3125 6.4375 C-4.08172908 6.9632594 -4.08172908 6.9632594 -7 8 C-5.50902342 4.2047869 -3.24299151 2.38957269 0 0 Z " fill="#2C3F4C" transform="translate(703,1254)"/>
<path d="M0 0 C2.88437779 1.29299694 4.87219421 2.65941363 7 5 C4.625 5.625 4.625 5.625 2 6 C1.34 5.34 0.68 4.68 0 4 C0 2.68 0 1.36 0 0 Z M0 6 C2 7 2 7 2 7 Z " fill="#283D4B" transform="translate(1684,1232)"/>
<path d="M0 0 C3.465 1.98 3.465 1.98 7 4 C6.01 4.99 5.02 5.98 4 7 C3.38125 6.360625 2.7625 5.72125 2.125 5.0625 C0.17402388 2.96116416 0.17402388 2.96116416 -2 2 C-1.34 1.34 -0.68 0.68 0 0 Z " fill="#F2F8FA" transform="translate(1267,688)"/>
<path d="M0 0 C0.99 0 1.98 0 3 0 C4.35439668 2.70879335 4.06501451 5.00933268 4 8 C4.66 8.33 5.32 8.66 6 9 C5.01 9.33 4.02 9.66 3 10 C2.01 6.7 1.02 3.4 0 0 Z " fill="#4385C1" transform="translate(1103,624)"/>
<path d="M0 0 C4.31392226 0.4793247 6.16569547 1.7457985 9 5 C4.125 4.125 4.125 4.125 3 3 C2.34 3.66 1.68 4.32 1 5 C0.67 3.35 0.34 1.7 0 0 Z " fill="#273D49" transform="translate(1561,1138)"/>
<path d="M0 0 C0.721875 0.268125 1.44375 0.53625 2.1875 0.8125 C-0.42764317 2.93288635 -3.00887616 4.94341744 -5.8125 6.8125 C-6.4725 6.1525 -7.1325 5.4925 -7.8125 4.8125 C-3.50480769 -0.23365385 -3.50480769 -0.23365385 0 0 Z " fill="#283D4A" transform="translate(1391.8125,985.1875)"/>
<path d="M0 0 C0.66 0.33 1.32 0.66 2 1 C1.649375 1.78375 1.29875 2.5675 0.9375 3.375 C0.628125 4.24125 0.31875 5.1075 0 6 C0.33 6.66 0.66 7.32 1 8 C-0.32 7.67 -1.64 7.34 -3 7 C-3 6.34 -3 5.68 -3 5 C-3.66 4.67 -4.32 4.34 -5 4 C-3.35 2.68 -1.7 1.36 0 0 Z " fill="#253B49" transform="translate(1445,863)"/>
<path d="M0 0 C-3.08888522 2.05925681 -3.70935927 2.2390374 -7.1875 2.125 C-9.0746875 2.063125 -9.0746875 2.063125 -11 2 C-11 1.34 -11 0.68 -11 0 C-6.94952424 -1.35015859 -4.2079832 -0.62084998 0 0 Z " fill="#4587C3" transform="translate(1184,802)"/>
<path d="M0 0 C3.25543229 0.34879632 4.01873107 1.02133261 6.25 3.5625 C6.8275 4.366875 7.405 5.17125 8 6 C6.35 6 4.7 6 3 6 C2.67 4.68 2.34 3.36 2 2 C1.34 2 0.68 2 0 2 C0 1.34 0 0.68 0 0 Z " fill="#4483BE" transform="translate(1094,705)"/>
<path d="M0 0 C1.7074998 1.28062485 3.37373596 2.61767557 5 4 C5 4.66 5 5.32 5 6 C4.01 6.33 3.02 6.66 2 7 C0.62437146 5.71034824 -0.70766393 4.37310707 -2 3 C-2 2.34 -2 1.68 -2 1 C-1.34 0.67 -0.68 0.34 0 0 Z " fill="#3F81BE" transform="translate(1261,678)"/>
<path d="M0 0 C2.9719385 1.12451727 5.33440687 2.22293791 8 4 C7.34 4 6.68 4 6 4 C6 4.99 6 5.98 6 7 C3 6 3 6 1.3125 2.9375 C0.879375 1.968125 0.44625 0.99875 0 0 Z " fill="#EFF4F8" transform="translate(1064,663)"/>
<path d="M0 0 C2.96175123 0.61277612 4.38058783 1.25372522 7 3 C7.33 2.34 7.66 1.68 8 1 C8 1.99 8 2.98 8 4 C6.02 4.33 4.04 4.66 2 5 C2 4.34 2 3.68 2 3 C1.34 3 0.68 3 0 3 C0 2.01 0 1.02 0 0 Z " fill="#4084C1" transform="translate(1249,471)"/>
<path d="M0 0 C2.88437779 1.29299694 4.87219421 2.65941363 7 5 C5.35 5.33 3.7 5.66 2 6 C1.67 5.01 1.34 4.02 1 3 C0.34 2.67 -0.32 2.34 -1 2 C-0.67 1.34 -0.34 0.68 0 0 Z " fill="#253A47" transform="translate(1541,1121)"/>
<path d="M0 0 C0.66 0 1.32 0 2 0 C2 1.65 2 3.3 2 5 C-0.64 5.33 -3.28 5.66 -6 6 C-4 4 -2 2 0 0 Z " fill="#2B404D" transform="translate(917,1088)"/>
<path d="M0 0 C3.36591866 1.44253657 5.51047079 3.33264727 8 6 C5.69 5.67 3.38 5.34 1 5 C0.67 3.35 0.34 1.7 0 0 Z " fill="#263B48" transform="translate(1417,1025)"/>
<path d="M0 0 C0.33 0.99 0.66 1.98 1 3 C1.66 3.33 2.32 3.66 3 4 C3 4.66 3 5.32 3 6 C1.35 6 -0.3 6 -2 6 C-2 5.34 -2 4.68 -2 4 C-2.66 3.67 -3.32 3.34 -4 3 C-2.68 2.01 -1.36 1.02 0 0 Z " fill="#273D4A" transform="translate(1009,1017)"/>
<path d="M0 0 C2 2 2 2 3 4.0625 C3.84589942 6.16865601 3.84589942 6.16865601 6 7 C5.67 7.66 5.34 8.32 5 9 C2.69 7.35 0.38 5.7 -2 4 C-1.34 2.68 -0.68 1.36 0 0 Z " fill="#2C3F4C" transform="translate(910,904)"/>
<path d="M0 0 C1.9375 1.0625 1.9375 1.0625 4 3 C4.75 6.6875 4.75 6.6875 5 10 C2.59927045 7.11912454 0.52708963 4.43595166 -1 1 C-0.67 0.67 -0.34 0.34 0 0 Z " fill="#EEF4F6" transform="translate(1410,435)"/>
<path d="M0 0 C0.99 0.33 1.98 0.66 3 1 C3 1.66 3 2.32 3 3 C1.25 4.2890625 1.25 4.2890625 -1 5.625 C-1.7425 6.07101562 -2.485 6.51703125 -3.25 6.9765625 C-3.8275 7.31429688 -4.405 7.65203125 -5 8 C-5 7.01 -5 6.02 -5 5 C-4.01 5 -3.02 5 -2 5 C-1.7834375 4.0409375 -1.7834375 4.0409375 -1.5625 3.0625 C-1 1 -1 1 0 0 Z " fill="#4585C0" transform="translate(1120,417)"/>
<path d="M0 0 C-1 3 -1 3 -3.0625 4.1875 C-3.701875 4.455625 -4.34125 4.72375 -5 5 C-5.33 3.35 -5.66 1.7 -6 0 C-3.50907189 -1.24546405 -2.58919267 -0.7767578 0 0 Z " fill="#F2F7F7" transform="translate(1058,395)"/>
<path d="M0 0 C0 0.66 0 1.32 0 2 C-0.66 2 -1.32 2 -2 2 C-1.67 2.99 -1.34 3.98 -1 5 C-3.66666667 5 -6.33333333 5 -9 5 C-2.87096774 0 -2.87096774 0 0 0 Z " fill="#4486C3" transform="translate(1098,369)"/>
<path d="M0 0 C1.32 0.66 2.64 1.32 4 2 C2.515 4.475 2.515 4.475 1 7 C0.34 6.67 -0.32 6.34 -1 6 C-0.67 4.02 -0.34 2.04 0 0 Z " fill="#253B49" transform="translate(1788,1353)"/>
<path d="M0 0 C0.33 0.66 0.66 1.32 1 2 C0.06553465 4.03144641 -0.93224776 6.03533587 -2 8 C-3.32 7.34 -4.64 6.68 -6 6 C-4 4 -2 2 0 0 Z " fill="#2B404E" transform="translate(761,1209)"/>
<path d="M0 0 C0.66 0.33 1.32 0.66 2 1 C2 1.99 2 2.98 2 4 C0.35 4.33 -1.3 4.66 -3 5 C-3 5.66 -3 6.32 -3 7 C-3.99 6.67 -4.98 6.34 -6 6 C-4 4 -2 2 0 0 Z " fill="#293C4A" transform="translate(1028,1002)"/>
<path d="M0 0 C2.62187494 1.04874998 3.79371361 1.64931313 5.25 4.125 C5.4975 4.74375 5.745 5.3625 6 6 C3 6 3 6 0.8125 4 C0.214375 3.34 -0.38375 2.68 -1 2 C-0.67 1.34 -0.34 0.68 0 0 Z " fill="#283D49" transform="translate(1253,984)"/>
<path d="M0 0 C1.98 0.99 3.96 1.98 6 3 C5.01 3.99 4.02 4.98 3 6 C1.68 5.01 0.36 4.02 -1 3 C-0.67 2.01 -0.34 1.02 0 0 Z " fill="#233A49" transform="translate(1054,922)"/>
<path d="M0 0 C0.99 0 1.98 0 3 0 C2.67 1.65 2.34 3.3 2 5 C0.68 5.33 -0.64 5.66 -2 6 C-1.125 1.125 -1.125 1.125 0 0 Z " fill="#233948" transform="translate(1396,897)"/>
<path d="M0 0 C-0.24609375 1.890625 -0.24609375 1.890625 -1 4 C-2.84765625 5.046875 -2.84765625 5.046875 -5.0625 5.75 C-6.16271484 6.11351562 -6.16271484 6.11351562 -7.28515625 6.484375 C-8.13400391 6.73960937 -8.13400391 6.73960937 -9 7 C-9 6.34 -9 5.68 -9 5 C-7.5390625 3.7109375 -7.5390625 3.7109375 -5.625 2.375 C-4.99851562 1.92898438 -4.37203125 1.48296875 -3.7265625 1.0234375 C-2 0 -2 0 0 0 Z " fill="#283C48" transform="translate(1493,831)"/>
<path d="M0 0 C1.2065625 0.0309375 1.2065625 0.0309375 2.4375 0.0625 C-2.3125 4.9375 -2.3125 4.9375 -4.5625 6.0625 C-3.48963568 0.08511307 -3.48963568 0.08511307 0 0 Z " fill="#283D4B" transform="translate(1643.5625,809.9375)"/>
<path d="M0 0 C-0.33 0.33 -0.66 0.66 -1 1 C1.475 1.99 1.475 1.99 4 3 C4 3.33 4 3.66 4 4 C1.69 4 -0.62 4 -3 4 C-3 3.01 -3 2.02 -3 1 C-3.99 0.67 -4.98 0.34 -6 0 C-3 -1 -3 -1 0 0 Z " fill="#508CC4" transform="translate(1254,802)"/>
<path d="M0 0 C0.66 0 1.32 0 2 0 C1.67 1.98 1.34 3.96 1 6 C-0.65 6.33 -2.3 6.66 -4 7 C-2.79618552 4.50638429 -1.54571278 2.31856917 0 0 Z " fill="#EBF4F8" transform="translate(1372,766)"/>
<path d="M0 0 C0.53625 0.144375 1.0725 0.28875 1.625 0.4375 C4.39915827 1.09453748 7.18525388 1.55219948 10 2 C10 2.33 10 2.66 10 3 C5.38 3 0.76 3 -4 3 C-2.68 2.67 -1.36 2.34 0 2 C0 1.34 0 0.68 0 0 Z " fill="#6D9FD1" transform="translate(1190,699)"/>
<path d="M0 0 C-1.5625 1.5625 -1.5625 1.5625 -4 3 C-7.75 2.6875 -7.75 2.6875 -11 2 C-7.06425135 -0.62383243 -4.54354105 -1.51451368 0 0 Z " fill="#E7F1F6" transform="translate(1341,697)"/>
<path d="M0 0 C0 3 0 3 -1 6 C-2.65 6.33 -4.3 6.66 -6 7 C-4.60667426 3.63279613 -3.0210714 2.0140476 0 0 Z " fill="#2A3E4B" transform="translate(813,1169)"/>
<path d="M0 0 C2.25 0.25 2.25 0.25 4 1 C3.01 2.32 2.02 3.64 1 5 C-0.65 4.67 -2.3 4.34 -4 4 C-2.25 1.9375 -2.25 1.9375 0 0 Z " fill="#273D4B" transform="translate(1157,902)"/>
<path d="M0 0 C2 1.3125 2 1.3125 4 3 C4 3.99 4 4.98 4 6 C1.5625 5.1875 1.5625 5.1875 -1 4 C-1.33 3.01 -1.66 2.02 -2 1 C-1.34 0.67 -0.68 0.34 0 0 Z " fill="#263D4C" transform="translate(771,809)"/>
<path d="M0 0 C0.33 1.65 0.66 3.3 1 5 C-1.31 4.34 -3.62 3.68 -6 3 C-6 2.34 -6 1.68 -6 1 C-3.92446352 0.4465236 -2.15634036 0 0 0 Z " fill="#4285C1" transform="translate(1127,787)"/>
<path d="M0 0 C0 3 0 3 -2 6 C-5.125 6.6875 -5.125 6.6875 -8 7 C-5.42215154 4.35247996 -3.08351902 2.05567935 0 0 Z " fill="#2B3F4C" transform="translate(709,607)"/>
<path d="M0 0 C2.64 1.65 5.28 3.3 8 5 C7.67 5.66 7.34 6.32 7 7 C4.20171644 6.61402985 3.1794116 6.19863427 1.25 4.0625 C0 2 0 2 0 0 Z " fill="#2F4450" transform="translate(1661,577)"/>
<path d="M0 0 C1.15941038 3.47823115 0.70820884 5.45895578 0 9 C-1.32 9.33 -2.64 9.66 -4 10 C-2.68 6.7 -1.36 3.4 0 0 Z " fill="#4285C1" transform="translate(998,472)"/>
<path d="M0 0 C5.875 3.75 5.875 3.75 7 6 C5.02 6 3.04 6 1 6 C0.67 4.02 0.34 2.04 0 0 Z " fill="#EEF2F4" transform="translate(1648,1294)"/>
<path d="M0 0 C2.475 0.99 2.475 0.99 5 2 C4.01 3.485 4.01 3.485 3 5 C0.525 4.01 0.525 4.01 -2 3 C-1.34 2.01 -0.68 1.02 0 0 Z " fill="#4182C0" transform="translate(1278,691)"/>
<path d="M0 0 C0 3 0 3 -1 6 C-2.65 6.33 -4.3 6.66 -6 7 C-4.77065985 3.31197956 -3.06140622 2.27643027 0 0 Z " fill="#4081BC" transform="translate(1225,628)"/>
<path d="M0 0 C0.33 0.66 0.66 1.32 1 2 C-0.75 4.0625 -0.75 4.0625 -3 6 C-5.25 5.75 -5.25 5.75 -7 5 C-4.63707344 2.47411298 -3.33537489 1.11179163 0 0 Z " fill="#3F82BE" transform="translate(1038,417)"/>
<path d="M0 0 C3.68754757 0.49831724 5.60490662 1.10067643 8 4 C7.01 4.495 7.01 4.495 6 5 C3.64018187 4.06421005 1.30368736 3.06652192 -1 2 C-0.67 1.34 -0.34 0.68 0 0 Z " fill="#4083BF" transform="translate(1336,370)"/>
<path d="M0 0 C4.875 1.75 4.875 1.75 6 4 C4.35 4.33 2.7 4.66 1 5 C0.34 4.01 -0.32 3.02 -1 2 C-0.67 1.34 -0.34 0.68 0 0 Z " fill="#253A47" transform="translate(1489,1081)"/>
<path d="M0 0 C0 0.99 0 1.98 0 3 C-0.66 3 -1.32 3 -2 3 C-2.33 4.32 -2.66 5.64 -3 7 C-4.32 6.34 -5.64 5.68 -7 5 C-4.69 3.35 -2.38 1.7 0 0 Z " fill="#324754" transform="translate(1353,927)"/>
<path d="M0 0 C2.97 0.495 2.97 0.495 6 1 C6.33 2.65 6.66 4.3 7 6 C1.125 2.25 1.125 2.25 0 0 Z " fill="#283C48" transform="translate(780,818)"/>
<path d="M0 0 C2.97 0.495 2.97 0.495 6 1 C6.33 1.99 6.66 2.98 7 4 C4.36 3.67 1.72 3.34 -1 3 C-0.67 2.01 -0.34 1.02 0 0 Z " fill="#498BC5" transform="translate(1146,795)"/>
<path d="M0 0 C1.65 1.32 3.3 2.64 5 4 C4.67 4.99 4.34 5.98 4 7 C2.35 5.68 0.7 4.36 -1 3 C-0.67 2.01 -0.34 1.02 0 0 Z " fill="#4485C1" transform="translate(1036,727)"/>
<path d="M0 0 C2.64 1.65 5.28 3.3 8 5 C7.01 5.66 6.02 6.32 5 7 C4.34 6.67 3.68 6.34 3 6 C3 5.01 3 4.02 3 3 C2.01 2.67 1.02 2.34 0 2 C0 1.34 0 0.68 0 0 Z " fill="#304552" transform="translate(745,708)"/>
<path d="M0 0 C2.76223278 2.76223278 2.57856291 5.20706617 3 9 C-1 4.375 -1 4.375 -1 1 C-0.67 0.67 -0.34 0.34 0 0 Z " fill="#4082BF" transform="translate(1011,692)"/>
<path d="M0 0 C0.99 0.33 1.98 0.66 3 1 C3.6875 3.0625 3.6875 3.0625 4 5 C2.35 5 0.7 5 -1 5 C-1.33 3.68 -1.66 2.36 -2 1 C-1.34 0.67 -0.68 0.34 0 0 Z " fill="#3F84C1" transform="translate(1420,458)"/>
<path d="M0 0 C0.598125 0.165 1.19625 0.33 1.8125 0.5 C4.11344336 1.1114124 4.11344336 1.1114124 7 1 C7 1.99 7 2.98 7 4 C4 4 4 4 1.8125 2 C1.214375 1.34 0.61625 0.68 0 0 Z " fill="#2B3F4B" transform="translate(1579,1240)"/>
<path d="M0 0 C0.33 0.66 0.66 1.32 1 2 C1.66 2.33 2.32 2.66 3 3 C2.01 3.66 1.02 4.32 0 5 C-1.32 4.34 -2.64 3.68 -4 3 C-2.68 2.01 -1.36 1.02 0 0 Z " fill="#243A48" transform="translate(798,1181)"/>
<path d="M0 0 C-2.31 1.65 -4.62 3.3 -7 5 C-7 3.68 -7 2.36 -7 1 C-3.375 -1.125 -3.375 -1.125 0 0 Z " fill="#2F424E" transform="translate(949,1155)"/>
<path d="M0 0 C0.66 1.32 1.32 2.64 2 4 C0.02 4.66 -1.96 5.32 -4 6 C-4 5.01 -4 4.02 -4 3 C-2 1.3125 -2 1.3125 0 0 Z " fill="#2C414E" transform="translate(885,1113)"/>
<path d="M0 0 C2.97 1.98 2.97 1.98 6 4 C5.01 4.495 5.01 4.495 4 5 C3.67 5.66 3.34 6.32 3 7 C2.34 6.67 1.68 6.34 1 6 C0.375 2.9375 0.375 2.9375 0 0 Z " fill="#2D414E" transform="translate(1292,927)"/>
<path d="M0 0 C4.875 1.75 4.875 1.75 6 4 C4.02 4.33 2.04 4.66 0 5 C-0.5625 3.0625 -0.5625 3.0625 -1 1 C-0.67 0.67 -0.34 0.34 0 0 Z " fill="#263A47" transform="translate(903,818)"/>
<path d="M0 0 C1.32 0.33 2.64 0.66 4 1 C4 1.66 4 2.32 4 3 C1.69 3.66 -0.62 4.32 -3 5 C-2.67 4.01 -2.34 3.02 -2 2 C-1.34 2 -0.68 2 0 2 C0 1.34 0 0.68 0 0 Z " fill="#3C81C0" transform="translate(1332,785)"/>
<path d="M0 0 C-2 2 -2 2 -5.625 2.125 C-6.73875 2.08375 -7.8525 2.0425 -9 2 C-5.945634 -1.054366 -3.9532319 -1.22686507 0 0 Z " fill="#4585BF" transform="translate(1283,745)"/>
<path d="M0 0 C0.66 0.99 1.32 1.98 2 3 C1 6 1 6 -2 8 C-1.125 1.125 -1.125 1.125 0 0 Z " fill="#3F83C1" transform="translate(1373,741)"/>
<path d="M0 0 C2.97 0.99 5.94 1.98 9 3 C8.01 3.66 7.02 4.32 6 5 C3.375 4.3125 3.375 4.3125 1 3 C0.67 2.01 0.34 1.02 0 0 Z " fill="#4384C0" transform="translate(1143,736)"/>
<path d="M0 0 C4 2 4 2 6 5 C5.01 6.485 5.01 6.485 4 8 C2.68 5.36 1.36 2.72 0 0 Z " fill="#3F81BB" transform="translate(1004,685)"/>
<path d="M0 0 C0.99 0 1.98 0 3 0 C3.33 1.65 3.66 3.3 4 5 C2.35 5.33 0.7 5.66 -1 6 C-0.67 4.02 -0.34 2.04 0 0 Z " fill="#4585C0" transform="translate(1050,637)"/>
<path d="M0 0 C0.99 0.33 1.98 0.66 3 1 C3 2.32 3 3.64 3 5 C2.34 4.67 1.68 4.34 1 4 C0.34 4 -0.32 4 -1 4 C-1.99 4 -2.98 4 -4 4 C-2.68 2.68 -1.36 1.36 0 0 Z " fill="#4183C2" transform="translate(1235,618)"/>
<path d="M0 0 C0.33 0 0.66 0 1 0 C1.9765625 6.0546875 1.9765625 6.0546875 2 8 C1.34 8.66 0.68 9.32 0 10 C-1.60339848 6.88228073 -2.18974141 5.60988311 -1.125 2.1875 C-0.75375 1.465625 -0.3825 0.74375 0 0 Z " fill="#4387C3" transform="translate(1045,612)"/>
<path d="M0 0 C0.66 0.33 1.32 0.66 2 1 C-0.31 2.65 -2.62 4.3 -5 6 C-5.33 5.01 -5.66 4.02 -6 3 C-4.03533587 1.93224776 -2.03144641 0.93446535 0 0 Z " fill="#E9F3F7" transform="translate(1196,520)"/>
<path d="M0 0 C0.33 0 0.66 0 1 0 C1 1.98 1 3.96 1 6 C0.01 6.495 0.01 6.495 -1 7 C-1.99 6.34 -2.98 5.68 -4 5 C-2.69254251 3.31295807 -1.35827971 1.64639965 0 0 Z " fill="#4283BE" transform="translate(1126,494)"/>
<path d="M0 0 C2.475 0.495 2.475 0.495 5 1 C4.67 1.99 4.34 2.98 4 4 C3.01 4 2.02 4 1 4 C0.67 2.68 0.34 1.36 0 0 Z " fill="#3D81C0" transform="translate(1327,427)"/>
<path d="M0 0 C0.33 0.99 0.66 1.98 1 3 C0.01 3.99 -0.98 4.98 -2 6 C-2.66 5.67 -3.32 5.34 -4 5 C-2.25 1.125 -2.25 1.125 0 0 Z " fill="#3F83C1" transform="translate(1083,377)"/>
</svg>
